<svg width="40" height="41" viewBox="0 0 40 41" fill="none" xmlns="http://www.w3.org/2000/svg">
<rect x="0.5" y="1" width="39" height="39" rx="19.5" stroke="#00970A"/>
<path fill-rule="evenodd" clip-rule="evenodd" d="M20 11.75C20.4142 11.75 20.75 12.0858 20.75 12.5L20.75 26.6893L25.4697 21.9697C25.7626 21.6768 26.2374 21.6768 26.5303 21.9697C26.8232 22.2626 26.8232 22.7374 26.5303 23.0303L20.5303 29.0303C20.3897 29.171 20.1989 29.25 20 29.25C19.8011 29.25 19.6103 29.171 19.4697 29.0303L13.4697 23.0303C13.1768 22.7374 13.1768 22.2626 13.4697 21.9697C13.7626 21.6768 14.2374 21.6768 14.5303 21.9697L19.25 26.6893L19.25 12.5C19.25 12.0858 19.5858 11.75 20 11.75Z" fill="#00970A"/>
</svg>
