<svg width="40" height="41" viewBox="0 0 40 41" fill="none" xmlns="http://www.w3.org/2000/svg">
<rect x="39.5" y="40" width="39" height="39" rx="19.5" transform="rotate(180 39.5 40)" stroke="#84ABB4"/>
<path fill-rule="evenodd" clip-rule="evenodd" d="M20 29.25C19.5858 29.25 19.25 28.9142 19.25 28.5L19.25 14.3107L14.5303 19.0303C14.2374 19.3232 13.7626 19.3232 13.4697 19.0303C13.1768 18.7374 13.1768 18.2626 13.4697 17.9697L19.4697 11.9697C19.6103 11.829 19.8011 11.75 20 11.75C20.1989 11.75 20.3897 11.829 20.5303 11.9697L26.5303 17.9697C26.8232 18.2626 26.8232 18.7374 26.5303 19.0303C26.2374 19.3232 25.7626 19.3232 25.4697 19.0303L20.75 14.3107L20.75 28.5C20.75 28.9142 20.4142 29.25 20 29.25Z" fill="#84ABB4"/>
</svg>
