<svg width="100" height="100" viewBox="0 0 100 100" fill="none" xmlns="http://www.w3.org/2000/svg">
<rect width="100" height="100" rx="28" fill="#3A616A"/>
<path fill-rule="evenodd" clip-rule="evenodd" d="M49.9998 19.1667C32.9711 19.1667 19.1665 32.9713 19.1665 50.0001C19.1665 54.9369 20.3249 59.5961 22.3825 63.7271C23.2083 65.3851 23.5263 67.3676 23.0053 69.315L21.0199 76.7351C20.6553 78.0979 21.902 79.3446 23.2648 78.98L30.6849 76.9946C32.6323 76.4736 34.6149 76.7916 36.2729 77.6174C40.4039 79.675 45.063 80.8334 49.9998 80.8334C67.0286 80.8334 80.8332 67.0289 80.8332 50.0001C80.8332 32.9713 67.0286 19.1667 49.9998 19.1667ZM14.1665 50.0001C14.1665 30.2099 30.2096 14.1667 49.9998 14.1667C69.79 14.1667 85.8332 30.2099 85.8332 50.0001C85.8332 69.7903 69.79 85.8334 49.9998 85.8334C44.2721 85.8334 38.8516 84.4877 34.0437 82.093C33.3262 81.7356 32.5936 81.6598 31.9773 81.8247L24.5572 83.8101C19.4777 85.1692 14.8307 80.5222 16.1898 75.4427L18.1752 68.0226C18.3401 67.4063 18.2643 66.6737 17.9069 65.9562C15.5122 61.1483 14.1665 55.7278 14.1665 50.0001ZM61.7676 41.5656C62.7439 42.542 62.7439 44.1249 61.7676 45.1012L48.4343 58.4345C47.472 59.3968 45.9169 59.4126 44.9352 58.4702L38.2685 52.0702C37.2725 51.114 37.2402 49.5314 38.1964 48.5354C39.1526 47.5394 40.7351 47.5071 41.7312 48.4633L46.6308 53.1669L58.2321 41.5656C59.2084 40.5893 60.7913 40.5893 61.7676 41.5656Z" fill="#FAFEFF"/>
</svg>
