<svg width="15" height="15" viewBox="0 0 15 15" fill="none" xmlns="http://www.w3.org/2000/svg">
<rect y="0.666626" width="14.3333" height="14.3333" rx="6" fill="#1D434C"/>
<path d="M9.85355 6.52018C10.0488 6.32492 10.0488 6.00833 9.85355 5.81307C9.65829 5.61781 9.34171 5.61781 9.14645 5.81307L6.16667 8.79285L5.18689 7.81307C4.99162 7.61781 4.67504 7.61781 4.47978 7.81307C4.28452 8.00833 4.28452 8.32492 4.47978 8.52018L5.81311 9.85351C6.00837 10.0488 6.32496 10.0488 6.52022 9.85351L9.85355 6.52018Z" fill="white"/>
<path fill-rule="evenodd" clip-rule="evenodd" d="M7.20492 0.666626H7.12841C5.58949 0.666618 4.38346 0.666611 3.44247 0.793124C2.47931 0.922617 1.7193 1.19284 1.12276 1.78938C0.526218 2.38592 0.255991 3.14594 0.126498 4.1091C-1.46627e-05 5.05009 -8.16694e-06 6.25611 1.34127e-07 7.79503V7.87154C-8.16694e-06 9.41047 -1.46627e-05 10.6165 0.126498 11.5575C0.255991 12.5206 0.526218 13.2807 1.12276 13.8772C1.7193 14.4737 2.47931 14.744 3.44247 14.8735C4.38346 15 5.58949 15 7.12842 15H7.20491C8.74384 15 9.94987 15 10.8909 14.8735C11.854 14.744 12.614 14.4737 13.2106 13.8772C13.8071 13.2807 14.0773 12.5206 14.2068 11.5575C14.3333 10.6165 14.3333 9.41047 14.3333 7.87154V7.79504C14.3333 6.25611 14.3333 5.05009 14.2068 4.1091C14.0773 3.14594 13.8071 2.38592 13.2106 1.78938C12.614 1.19284 11.854 0.922617 10.8909 0.793124C9.94987 0.666611 8.74384 0.666618 7.20492 0.666626ZM1.82986 2.49649C2.20964 2.11672 2.72345 1.89879 3.57572 1.78421C4.44237 1.66769 5.58118 1.66663 7.16667 1.66663C8.75215 1.66663 9.89096 1.66769 10.7576 1.78421C11.6099 1.89879 12.1237 2.11672 12.5035 2.49649C12.8832 2.87626 13.1012 3.39007 13.2158 4.24234C13.3323 5.109 13.3333 6.24781 13.3333 7.83329C13.3333 9.41878 13.3323 10.5576 13.2158 11.4242C13.1012 12.2765 12.8832 12.7903 12.5035 13.1701C12.1237 13.5499 11.6099 13.7678 10.7576 13.8824C9.89096 13.9989 8.75215 14 7.16667 14C5.58118 14 4.44237 13.9989 3.57572 13.8824C2.72345 13.7678 2.20964 13.5499 1.82986 13.1701C1.45009 12.7903 1.23217 12.2765 1.11758 11.4242C1.00106 10.5576 1 9.41878 1 7.83329C1 6.24781 1.00106 5.109 1.11758 4.24234C1.23217 3.39007 1.45009 2.87626 1.82986 2.49649Z" fill="white"/>
</svg>
