<svg width="1084" height="736" viewBox="0 0 1084 736" fill="none" xmlns="http://www.w3.org/2000/svg">
<rect width="1084" height="736" rx="24" fill="white"/>
<rect x="32" y="31" width="110" height="40" rx="12" fill="#1D434C"/>
<path d="M47.304 53.5C46.5947 53.5 46.0253 53.346 45.596 53.038C45.176 52.73 44.9473 52.3333 44.91 51.848C44.8727 51.6707 44.854 51.3673 44.854 50.938H46.058C46.058 51.2087 46.072 51.428 46.1 51.596C46.1373 51.764 46.2307 51.8807 46.38 51.946C46.5293 52.0113 46.7627 52.044 47.08 52.044H48.13C48.9607 52.044 49.376 51.7967 49.376 51.302C49.376 51.2087 49.362 51.1153 49.334 51.022L49.32 50.952L48.27 46.85L49.544 46.5L50.58 50.63C50.7107 51.1527 50.8413 51.5213 50.972 51.736C51.1027 51.9413 51.3173 52.044 51.616 52.044H52.302L52.386 52.772L52.302 53.5H51.616C51 53.5 50.496 53.2573 50.104 52.772C49.6373 53.2573 48.9233 53.5 47.962 53.5H47.304ZM52.1605 52.044H54.2325C54.6711 52.044 55.0118 51.9693 55.2545 51.82C55.5065 51.6613 55.6325 51.4 55.6325 51.036C55.6325 50.8587 55.5998 50.658 55.5345 50.434L54.9885 48.348L56.2485 47.984L56.8085 50.14C56.9018 50.4573 56.9485 50.7747 56.9485 51.092C56.9485 51.596 56.8271 52.03 56.5845 52.394C56.3418 52.758 56.0151 53.0333 55.6045 53.22C55.1938 53.4067 54.7365 53.5 54.2325 53.5H52.1605V52.044ZM51.5305 54.844H52.9025V56.23H51.5305V54.844ZM54.1345 54.844H55.5065V56.23H54.1345V54.844ZM61.5823 53.5C61.3489 53.5 61.1576 53.4813 61.0083 53.444C61.0269 53.6493 61.0363 53.794 61.0363 53.878C61.0363 54.718 60.7749 55.362 60.2523 55.81C59.7296 56.258 58.9549 56.622 57.9283 56.902L57.2423 57.084L56.9062 55.684L57.5923 55.502C58.1056 55.362 58.5023 55.2313 58.7823 55.11C59.0716 54.9887 59.3003 54.8207 59.4683 54.606C59.6456 54.4007 59.7343 54.1253 59.7343 53.78C59.7343 53.7147 59.7249 53.598 59.7063 53.43L59.1463 49.398L60.4343 49.202L60.5463 50.056C60.6396 50.56 60.6909 50.8633 60.7003 50.966C60.7749 51.4047 60.8683 51.694 60.9803 51.834C61.1016 51.974 61.3023 52.044 61.5823 52.044H61.6803L61.7643 52.772L61.6803 53.5H61.5823ZM61.5804 52.044H61.8184C62.6864 52.044 63.3957 52.0253 63.9464 51.988C64.5064 51.9507 65.0757 51.8527 65.6544 51.694L68.7344 50.896L66.0884 49.412C65.8364 49.272 65.5704 49.202 65.2904 49.202C65.0104 49.202 64.7444 49.2767 64.4924 49.426C64.2497 49.566 64.0584 49.7713 63.9184 50.042L63.6664 50.476L62.5464 49.776L62.8124 49.286C63.0831 48.7913 63.4331 48.4087 63.8624 48.138C64.2917 47.8673 64.7537 47.732 65.2484 47.732C65.7431 47.732 66.2284 47.872 66.7044 48.152L70.2604 50.28L70.0784 51.96L65.9764 53.094C65.3231 53.2713 64.6791 53.3833 64.0444 53.43C63.4191 53.4767 62.6724 53.5 61.8044 53.5H61.5804V52.044ZM64.3524 44.862H65.9064V46.416H64.3524V44.862ZM77.6966 53.5C76.9872 53.5 76.4179 53.346 75.9886 53.038C75.5686 52.73 75.3399 52.3333 75.3026 51.848C75.2652 51.6707 75.2466 51.3673 75.2466 50.938H76.4506C76.4506 51.2087 76.4646 51.428 76.4926 51.596C76.5299 51.764 76.6232 51.8807 76.7726 51.946C76.9219 52.0113 77.1552 52.044 77.4726 52.044H78.5226C79.3532 52.044 79.7686 51.7967 79.7686 51.302C79.7686 51.2087 79.7546 51.1153 79.7266 51.022L79.7126 50.952L78.6626 46.85L79.9366 46.5L80.9726 50.63C81.1032 51.1527 81.2339 51.5213 81.3646 51.736C81.4952 51.9413 81.7099 52.044 82.0086 52.044H82.6946L82.7786 52.772L82.6946 53.5H82.0086C81.3926 53.5 80.8886 53.2573 80.4966 52.772C80.0299 53.2573 79.3159 53.5 78.3546 53.5H77.6966ZM82.553 52.044H83.435C83.8644 52.044 84.1677 51.974 84.345 51.834C84.5224 51.6847 84.6017 51.456 84.583 51.148V51.12L84.429 49.398L85.717 49.272L85.871 50.994V51.008C85.9084 51.4 86.0064 51.6707 86.165 51.82C86.3237 51.9693 86.6084 52.044 87.019 52.044L87.103 52.772L87.019 53.5C86.2537 53.5 85.6657 53.29 85.255 52.87C84.8164 53.29 84.2097 53.5 83.435 53.5H82.553V52.044ZM82.567 54.718H84.121V56.272H82.567V54.718ZM94.4054 53.5C93.7054 53.5 93.1407 53.2573 92.7114 52.772C92.2914 53.2573 91.708 53.5 90.9614 53.5C90.616 53.5 90.2987 53.4347 90.0094 53.304C89.7294 53.1733 89.4867 52.9913 89.2814 52.758C88.852 53.2527 88.2687 53.5 87.5314 53.5H86.8734V52.044H87.5314C87.97 52.044 88.2687 51.96 88.4274 51.792C88.586 51.624 88.67 51.4047 88.6794 51.134V51.05V49.314H89.8974V51.05V51.134C89.9067 51.4233 90 51.6473 90.1774 51.806C90.3547 51.9647 90.616 52.044 90.9614 52.044C91.4187 52.044 91.722 51.9507 91.8714 51.764C92.03 51.5773 92.1094 51.3393 92.1094 51.05V49.314H93.3274V51.05V51.134C93.3274 51.4233 93.416 51.6473 93.5934 51.806C93.78 51.9647 94.0507 52.044 94.4054 52.044C95.1707 52.044 95.5534 51.722 95.5534 51.078C95.5534 50.882 95.5207 50.6673 95.4554 50.434L94.8954 48.348L96.1554 47.984L96.7154 50.07C96.8087 50.4153 96.8554 50.7513 96.8554 51.078C96.8554 51.5727 96.7434 52.0067 96.5194 52.38C96.3047 52.744 96.0107 53.024 95.6374 53.22C95.2734 53.4067 94.8627 53.5 94.4054 53.5Z" fill="white"/>
<path d="M122 48C122 48.5523 121.552 49 121 49C120.447 49 120 48.5523 120 48C120 47.4477 120.447 47 121 47C121.552 47 122 47.4477 122 48Z" fill="white"/>
<path d="M116 48C116 48.5523 115.552 49 115 49C114.447 49 114 48.5523 114 48C114 47.4477 114.447 47 115 47C115.552 47 116 47.4477 116 48Z" fill="white"/>
<path fill-rule="evenodd" clip-rule="evenodd" d="M118 41.75C116.757 41.75 115.75 42.7574 115.75 44V44.2545C116.167 44.25 116.618 44.25 117.105 44.25H118.894C119.381 44.25 119.832 44.25 120.25 44.2545V44C120.25 42.7574 119.242 41.75 118 41.75ZM121.75 44.3069V44C121.75 41.9289 120.071 40.25 118 40.25C115.929 40.25 114.25 41.9289 114.25 44V44.3069C114.115 44.3168 113.984 44.3283 113.859 44.3419C112.98 44.4366 112.246 44.6349 111.593 45.082C111.369 45.2357 111.158 45.4085 110.964 45.5983C110.397 46.1503 110.059 46.8317 109.794 47.6744C109.536 48.4926 109.328 49.5327 109.067 50.8396L109.048 50.935C108.671 52.8181 108.374 54.302 108.289 55.484C108.202 56.6916 108.324 57.7075 108.896 58.588C109.087 58.8817 109.309 59.1534 109.56 59.3982C110.311 60.1318 111.283 60.4504 112.485 60.6018C113.66 60.75 115.174 60.75 117.094 60.75H118.905C120.825 60.75 122.339 60.75 123.514 60.6018C124.716 60.4504 125.688 60.1318 126.439 59.3982C126.69 59.1534 126.913 58.8817 127.103 58.588C127.675 57.7075 127.797 56.6916 127.71 55.484C127.625 54.3021 127.328 52.8182 126.951 50.9351L126.932 50.8396C126.671 49.5327 126.463 48.4926 126.206 47.6744C125.941 46.8317 125.602 46.1503 125.036 45.5983C124.841 45.4085 124.63 45.2357 124.406 45.082C123.753 44.6349 123.019 44.4366 122.141 44.3419C122.015 44.3283 121.885 44.3168 121.75 44.3069ZM114.019 45.8333C113.273 45.9137 112.811 46.0657 112.441 46.3192C112.288 46.4245 112.144 46.5427 112.01 46.6725C111.689 46.9855 111.45 47.4081 111.224 48.1245C110.994 48.8566 110.801 49.8172 110.529 51.1762C110.14 53.1239 109.863 54.5153 109.785 55.5919C109.709 56.6538 109.838 57.2849 110.154 57.7707C110.284 57.9717 110.437 58.1576 110.608 58.3251C111.022 58.7298 111.616 58.9804 112.672 59.1136C113.743 59.2486 115.162 59.25 117.148 59.25H118.851C120.837 59.25 122.256 59.2486 123.327 59.1136C124.383 58.9804 124.977 58.7298 125.391 58.3251C125.563 58.1576 125.715 57.9717 125.846 57.7707C126.161 57.2849 126.291 56.6538 126.214 55.5919C126.136 54.5153 125.86 53.1239 125.47 51.1762C125.198 49.8173 125.005 48.8566 124.775 48.1245C124.549 47.4081 124.31 46.9855 123.989 46.6725C123.855 46.5427 123.711 46.4245 123.558 46.3192C123.188 46.0657 122.727 45.9137 121.98 45.8333C121.217 45.751 120.237 45.75 118.851 45.75H117.148C115.762 45.75 114.782 45.751 114.019 45.8333Z" fill="white"/>
<rect x="148.5" y="31.5" width="39" height="39" rx="11.5" stroke="#1D434C"/>
<path fill-rule="evenodd" clip-rule="evenodd" d="M168 40.25C163.72 40.25 160.25 43.7198 160.25 48V48.7041C160.25 49.401 160.044 50.0824 159.657 50.6622L158.509 52.3851C157.175 54.3848 158.193 57.1028 160.512 57.7351C161.267 57.9412 162.029 58.1155 162.796 58.2581L162.798 58.2632C163.567 60.3151 165.622 61.75 168 61.75C170.378 61.75 172.433 60.3151 173.202 58.2632L173.204 58.2581C173.971 58.1155 174.733 57.9412 175.488 57.7351C177.807 57.1028 178.825 54.3848 177.492 52.3851L176.343 50.6622C175.956 50.0824 175.75 49.401 175.75 48.7041V48C175.75 43.7198 172.28 40.25 168 40.25ZM171.376 58.537C169.133 58.805 166.866 58.8049 164.623 58.5369C165.334 59.5585 166.571 60.25 168 60.25C169.429 60.25 170.665 59.5585 171.376 58.537ZM161.75 48C161.75 44.5482 164.548 41.75 168 41.75C171.452 41.75 174.25 44.5482 174.25 48V48.7041C174.25 49.6972 174.544 50.668 175.095 51.4943L176.243 53.2172C177.009 54.3649 176.424 55.925 175.094 56.288C170.449 57.5546 165.551 57.5546 160.906 56.288C159.576 55.925 158.991 54.3649 159.757 53.2172L160.905 51.4943C161.456 50.668 161.75 49.6972 161.75 48.7041V48Z" fill="#1C274C"/>
<path d="M983.6 62C982.416 62 981.525 61.9893 980.928 61.968C980.331 61.9467 979.861 61.904 979.52 61.84C979.179 61.776 978.853 61.6747 978.544 61.536C977.979 61.2907 977.547 60.928 977.248 60.448C976.96 59.968 976.816 59.4133 976.816 58.784C976.816 58.4213 976.864 58.048 976.96 57.664L977.568 55.328L979.52 55.92L978.896 58.336C978.843 58.528 978.816 58.6827 978.816 58.8C978.816 58.96 978.859 59.0933 978.944 59.2C979.029 59.296 979.163 59.3813 979.344 59.456C979.568 59.5627 979.947 59.6373 980.48 59.68C981.013 59.712 982.107 59.728 983.76 59.728H983.776C985.387 59.728 986.453 59.7067 986.976 59.664C987.499 59.6213 987.888 59.552 988.144 59.456C988.325 59.3813 988.459 59.2907 988.544 59.184C988.629 59.0667 988.672 58.912 988.672 58.72C988.672 58.5493 988.64 58.3467 988.576 58.112L987.968 55.888L989.92 55.312L990.528 57.536C990.635 57.9307 990.688 58.336 990.688 58.752C990.688 59.392 990.539 59.9573 990.24 60.448C989.952 60.928 989.525 61.2907 988.96 61.536C988.651 61.6747 988.315 61.776 987.952 61.84C987.589 61.904 987.099 61.9467 986.48 61.968C985.872 61.9893 984.971 62 983.776 62H983.76H983.6ZM981.152 54.192H983.024V56.048H981.152V54.192ZM984.432 54.192H986.304V56.048H984.432V54.192ZM995.932 62C995.164 62 994.551 61.8827 994.092 61.648C993.644 61.4133 993.314 61.0347 993.1 60.512C992.887 59.9787 992.759 59.264 992.716 58.368L992.428 51.008L994.444 50.912L994.732 58.368C994.754 58.8267 994.786 59.1413 994.828 59.312C994.882 59.4827 994.983 59.5947 995.132 59.648C995.282 59.7013 995.548 59.728 995.932 59.728H996.092L996.22 60.864L996.092 62H995.932ZM1004.46 62C1003.71 62 1003.07 61.7547 1002.54 61.264C1002.03 61.7547 1001.38 62 1000.58 62C999.829 62 999.2 61.744 998.688 61.232C998.154 61.744 997.488 62 996.688 62H995.936V59.728H996.688C997.104 59.728 997.381 59.6587 997.52 59.52C997.658 59.3813 997.728 59.184 997.728 58.928V58.896V56.912H999.616V58.896C999.616 59.4507 999.936 59.728 1000.58 59.728C1000.99 59.728 1001.27 59.664 1001.41 59.536C1001.55 59.3973 1001.62 59.1947 1001.62 58.928V58.896V56.912H1003.52V58.896V58.96C1003.52 59.216 1003.59 59.408 1003.74 59.536C1003.9 59.664 1004.14 59.728 1004.46 59.728C1004.82 59.728 1005.08 59.6693 1005.25 59.552C1005.43 59.424 1005.52 59.2107 1005.52 58.912C1005.52 58.7413 1005.49 58.528 1005.42 58.272L1004.78 55.888L1006.72 55.312L1007.36 57.696C1007.48 58.144 1007.54 58.5547 1007.54 58.928C1007.54 59.536 1007.4 60.0747 1007.14 60.544C1006.88 61.0027 1006.52 61.36 1006.05 61.616C1005.59 61.872 1005.06 62 1004.46 62ZM999.856 52.944H1001.86L1001.87 54.976H999.84L999.856 52.944ZM1001.62 50.528H1003.42V52.192H1001.62V50.528ZM1003.15 52.944H1005.15L1005.17 54.976H1003.14L1003.15 52.944ZM1006.94 63.904L1007.93 63.616C1008.69 63.4133 1009.21 63.2053 1009.51 62.992C1009.82 62.7787 1009.98 62.4533 1009.98 62.016C1009.98 61.9413 1009.97 61.8187 1009.95 61.648L1009.31 57.056L1011.31 56.752L1011.77 60.096L1011.95 61.376C1011.99 61.76 1012.01 62.0267 1012.01 62.176C1012.01 63.1573 1011.72 63.9253 1011.13 64.48C1010.54 65.0453 1009.65 65.488 1008.46 65.808L1007.47 66.096L1006.94 63.904ZM1016.87 62C1016.1 62 1015.49 61.8827 1015.03 61.648C1014.58 61.4133 1014.25 61.0347 1014.04 60.512C1013.82 59.9787 1013.7 59.264 1013.65 58.368L1013.37 51.008L1015.38 50.912L1015.67 58.368C1015.69 58.8267 1015.72 59.1413 1015.77 59.312C1015.82 59.4827 1015.92 59.5947 1016.07 59.648C1016.22 59.7013 1016.49 59.728 1016.87 59.728H1017.03L1017.16 60.864L1017.03 62H1016.87ZM1016.87 59.728H1017.9C1018.13 59.728 1018.32 59.7227 1018.46 59.712C1018.09 59.264 1017.93 58.8267 1017.96 58.4L1018.06 57.456C1018.11 56.912 1018.28 56.4213 1018.57 55.984C1018.87 55.5467 1019.25 55.2053 1019.71 54.96C1020.16 54.7147 1020.66 54.592 1021.19 54.592C1021.81 54.592 1022.36 54.7573 1022.84 55.088C1023.33 55.4187 1023.71 55.856 1023.96 56.4C1024.22 56.9333 1024.33 57.4987 1024.3 58.096L1024.25 58.832C1024.24 59.12 1024.11 59.4187 1023.87 59.728H1024.14H1025.31L1025.43 60.864L1025.31 62H1024.14C1023.17 62 1022.16 61.8027 1021.11 61.408C1020.59 61.5893 1020.05 61.7333 1019.48 61.84C1018.93 61.9467 1018.4 62 1017.9 62H1016.87V59.728ZM1019.99 58.496C1020.21 58.7947 1020.56 59.0453 1021.05 59.248C1021.71 59.0347 1022.1 58.816 1022.22 58.592L1022.3 58.08C1022.33 57.7707 1022.24 57.488 1022.03 57.232C1021.81 56.976 1021.53 56.848 1021.18 56.848C1020.89 56.848 1020.63 56.944 1020.41 57.136C1020.19 57.3173 1020.06 57.552 1020.04 57.84L1019.99 58.496ZM1020.19 51.36H1022.28V53.472H1020.19V51.36ZM1033.67 62C1032.91 62 1032.27 61.7547 1031.75 61.264C1031.23 61.7547 1030.58 62 1029.78 62C1029.03 62 1028.4 61.744 1027.89 61.232C1027.36 61.744 1026.69 62 1025.89 62H1025.14V59.728H1025.89C1026.31 59.728 1026.58 59.6587 1026.72 59.52C1026.86 59.3813 1026.93 59.184 1026.93 58.928V58.896V56.912H1028.82V58.896C1028.82 59.4507 1029.14 59.728 1029.78 59.728C1030.19 59.728 1030.47 59.664 1030.61 59.536C1030.75 59.3973 1030.82 59.1947 1030.82 58.928V58.896V56.912H1032.72V58.896V58.96C1032.72 59.216 1032.8 59.408 1032.95 59.536C1033.11 59.664 1033.35 59.728 1033.67 59.728C1034.02 59.728 1034.28 59.6693 1034.45 59.552C1034.63 59.424 1034.72 59.2107 1034.72 58.912C1034.72 58.7413 1034.69 58.528 1034.63 58.272L1033.99 55.888L1035.92 55.312L1036.56 57.696C1036.68 58.144 1036.74 58.5547 1036.74 58.928C1036.74 59.536 1036.61 60.0747 1036.34 60.544C1036.08 61.0027 1035.72 61.36 1035.25 61.616C1034.79 61.872 1034.26 62 1033.67 62Z" fill="black"/>
<circle opacity="0.6" cx="508" cy="287" r="66" fill="url(#paint0_linear_1226_11334)"/>
<circle opacity="0.6" cx="473.5" cy="341.5" r="31.5" fill="#759CA5"/>
<path d="M567.25 317.583C571.347 317.583 574.667 314.263 574.667 310.167C574.667 306.071 571.347 302.75 567.25 302.75C563.154 302.75 559.834 306.071 559.834 310.167C559.834 314.263 563.154 317.583 567.25 317.583Z" fill="#3A616A"/>
<path d="M530.167 310.167C530.167 314.263 526.847 317.583 522.75 317.583C518.654 317.583 515.334 314.263 515.334 310.167C515.334 306.071 518.654 302.75 522.75 302.75C526.847 302.75 530.167 306.071 530.167 310.167Z" fill="#3A616A"/>
<path fill-rule="evenodd" clip-rule="evenodd" d="M517.188 275.128V273.083C517.188 257.723 529.64 245.271 545 245.271C560.361 245.271 572.813 257.723 572.813 273.083V275.128C577.696 275.279 582.045 275.55 585.903 276.037C594.812 277.16 602.024 279.523 607.595 284.963C609.454 286.779 611.106 288.794 612.521 290.973C616.764 297.503 617.667 305.037 617.021 313.994C616.388 322.76 614.187 333.765 611.394 347.731L611.252 348.44C609.314 358.133 607.771 365.847 605.862 371.915C603.896 378.165 601.385 383.219 597.185 387.312C595.741 388.72 594.178 390.002 592.514 391.142C587.676 394.458 582.228 395.929 575.714 396.631C569.389 397.313 561.522 397.313 551.637 397.313H538.365C528.48 397.313 520.613 397.313 514.288 396.631C507.774 395.929 502.326 394.458 497.488 391.142C495.824 390.002 494.261 388.72 492.817 387.312C488.616 383.219 486.106 378.165 484.14 371.915C482.231 365.847 480.688 358.133 478.75 348.44L478.608 347.732C475.815 333.766 473.613 322.76 472.981 313.994C472.335 305.037 473.238 297.503 477.481 290.973C478.896 288.794 480.548 286.779 482.407 284.963C487.978 279.523 495.19 277.16 504.099 276.037C507.957 275.55 512.305 275.279 517.188 275.128ZM528.313 273.083C528.313 263.867 535.784 256.396 545 256.396C554.217 256.396 561.688 263.867 561.688 273.083V274.954C558.542 274.937 555.22 274.938 551.716 274.938H538.286C534.781 274.938 531.459 274.937 528.313 274.954V273.083ZM490.18 292.922C493.254 289.92 497.656 288.062 505.49 287.074C513.433 286.073 523.954 286.063 538.686 286.063H551.316C566.048 286.063 576.569 286.073 584.512 287.074C592.346 288.062 596.748 289.92 599.822 292.922C601.094 294.164 602.224 295.543 603.193 297.034C605.533 300.637 606.493 305.318 605.924 313.194C605.349 321.178 603.295 331.498 600.406 345.943C598.391 356.022 596.958 363.147 595.25 368.577C593.578 373.89 591.802 377.024 589.42 379.345C588.432 380.309 587.363 381.185 586.224 381.966C583.481 383.846 580.059 384.973 574.521 385.57C568.862 386.18 561.595 386.188 551.316 386.188H538.686C528.407 386.188 521.14 386.18 515.48 385.57C509.942 384.973 506.521 383.846 503.778 381.966C502.639 381.185 501.57 380.309 500.581 379.345C498.2 377.024 496.423 373.89 494.752 368.577C493.044 363.147 491.611 356.022 489.596 345.943C486.706 331.498 484.653 321.178 484.077 313.194C483.509 305.318 484.468 300.637 486.809 297.034C487.778 295.543 488.908 294.164 490.18 292.922Z" fill="#3A616A"/>
<path d="M398.264 442C397.037 442 396.115 441.989 395.496 441.968C394.888 441.936 394.435 441.893 394.136 441.84C393.848 441.787 393.565 441.696 393.288 441.568C392.797 441.355 392.424 441.045 392.168 440.64C391.923 440.235 391.8 439.76 391.8 439.216C391.8 438.885 391.848 438.539 391.944 438.176L392.536 435.92L393.704 436.272L393.112 438.576C393.048 438.832 393.016 439.056 393.016 439.248C393.016 439.504 393.075 439.723 393.192 439.904C393.32 440.075 393.512 440.219 393.768 440.336C393.949 440.421 394.157 440.485 394.392 440.528C394.637 440.571 395.059 440.603 395.656 440.624C396.253 440.645 397.149 440.656 398.344 440.656H402.12C403.144 440.656 403.624 440.256 403.56 439.456V439.408L403.384 437.44L404.6 437.328L404.776 439.296V439.328C404.819 439.808 404.947 440.149 405.16 440.352C405.373 440.555 405.725 440.656 406.216 440.656H406.392L406.472 441.328L406.392 442H406.216C405.32 442 404.648 441.739 404.2 441.216C403.965 441.472 403.667 441.669 403.304 441.808C402.952 441.936 402.557 442 402.12 442H398.344H398.264ZM396.28 435.072H397.704V436.496H396.28V435.072ZM399.112 435.072H400.536V436.496H399.112V435.072ZM414.841 442C414.436 442 414.068 441.925 413.737 441.776C413.407 441.616 413.129 441.397 412.905 441.12C412.447 441.707 411.78 442 410.905 442C410.5 442 410.132 441.92 409.801 441.76C409.471 441.6 409.193 441.381 408.969 441.104C408.5 441.701 407.828 442 406.953 442H406.201V440.656H406.953C407.913 440.656 408.393 440.224 408.393 439.36V437.376H409.529V439.36V439.456C409.529 439.819 409.647 440.112 409.881 440.336C410.127 440.549 410.468 440.656 410.905 440.656C411.823 440.656 412.303 440.267 412.345 439.488V439.36V437.376H413.481V439.36V439.488C413.492 439.851 413.615 440.139 413.849 440.352C414.084 440.555 414.415 440.656 414.841 440.656C415.268 440.656 415.615 440.56 415.881 440.368C416.159 440.165 416.297 439.835 416.297 439.376C416.297 439.131 416.26 438.875 416.185 438.608L415.545 436.224L416.713 435.888L417.353 438.272C417.46 438.656 417.513 439.029 417.513 439.392C417.513 439.947 417.391 440.421 417.145 440.816C416.9 441.2 416.575 441.493 416.169 441.696C415.764 441.899 415.321 442 414.841 442ZM419.609 431.472L420.825 431.408L421.225 441.984L420.025 442.048L419.609 431.472ZM430.005 442.016C429.504 442.016 429.04 441.893 428.613 441.648C428.197 441.392 427.866 441.051 427.621 440.624C427.376 440.187 427.253 439.717 427.253 439.216C427.253 438.779 427.36 438.336 427.573 437.888C427.797 437.44 428.101 437.024 428.485 436.64L429.141 436L428.597 435.472L429.445 434.496L431.285 436.288C431.808 436.8 432.181 437.28 432.405 437.728C432.629 438.176 432.741 438.672 432.741 439.216C432.741 439.717 432.618 440.187 432.373 440.624C432.128 441.051 431.792 441.392 431.365 441.648C430.949 441.893 430.496 442.016 430.005 442.016ZM428.437 439.216C428.437 439.621 428.586 439.973 428.885 440.272C429.194 440.56 429.568 440.704 430.005 440.704C430.442 440.704 430.81 440.56 431.109 440.272C431.408 439.984 431.557 439.632 431.557 439.216C431.557 438.907 431.482 438.613 431.333 438.336C431.194 438.059 430.906 437.707 430.469 437.28L430.021 436.848L429.381 437.472C429.05 437.803 428.81 438.107 428.661 438.384C428.512 438.661 428.437 438.939 428.437 439.216ZM437.182 442C436.393 442 435.763 441.845 435.294 441.536C434.835 441.216 434.579 440.8 434.526 440.288C434.473 440.064 434.446 439.712 434.446 439.232H435.566C435.566 439.563 435.587 439.829 435.63 440.032C435.673 440.256 435.801 440.416 436.014 440.512C436.238 440.608 436.563 440.656 436.99 440.656H437.966C439.086 440.656 439.646 440.32 439.646 439.648C439.646 439.573 439.625 439.44 439.582 439.248V439.216L438.382 434.512L439.566 434.192L440.766 438.912C440.873 439.328 440.969 439.653 441.054 439.888C441.15 440.112 441.278 440.299 441.438 440.448C441.598 440.587 441.811 440.656 442.078 440.656H442.862L442.942 441.328L442.862 442H442.078C441.363 442 440.787 441.701 440.35 441.104C439.838 441.701 438.99 442 437.806 442H437.182ZM451.053 442C450.232 442 449.576 441.675 449.085 441.024C448.616 441.675 447.923 442 447.005 442C446.195 442 445.56 441.675 445.101 441.024C444.621 441.675 443.939 442 443.053 442H442.701V440.656H443.053C444.024 440.656 444.509 440.224 444.509 439.36V437.376H445.645V439.36C445.677 439.659 445.773 439.952 445.933 440.24C446.093 440.517 446.451 440.656 447.005 440.656C447.581 440.656 447.965 440.533 448.157 440.288C448.36 440.032 448.461 439.723 448.461 439.36V437.376H449.597V439.36C449.608 439.712 449.725 440.011 449.949 440.256C450.173 440.501 450.515 440.624 450.973 440.624C451.485 440.624 451.859 440.533 452.093 440.352C452.339 440.16 452.461 439.915 452.461 439.616C452.461 439.499 452.445 439.387 452.413 439.28L451.885 437.312L452.989 436.992L453.517 438.96L453.533 439.04C453.661 439.52 453.912 439.909 454.285 440.208C454.659 440.507 455.085 440.656 455.565 440.656L455.645 441.328L455.565 442C455.107 442 454.68 441.904 454.285 441.712C453.891 441.52 453.549 441.253 453.261 440.912C453.048 441.243 452.749 441.509 452.365 441.712C451.992 441.904 451.555 442 451.053 442ZM446.925 434.144H448.429V435.648H446.909L446.925 434.144ZM448.413 432.144H449.805V433.456H448.413V432.144ZM449.757 434.144H451.261L451.277 435.648H449.741L449.757 434.144ZM455.404 440.656H456.668C457.831 440.656 458.412 440.219 458.412 439.344C458.412 439.109 458.375 438.864 458.3 438.608L457.66 436.224L458.844 435.888L459.484 438.272C459.58 438.667 459.628 439.029 459.628 439.36C459.628 440.203 459.346 440.853 458.78 441.312C458.215 441.771 457.511 442 456.668 442H455.404V440.656ZM456.796 432.864H458.412V434.464H456.796V432.864ZM471.795 442C470.569 442 469.646 441.989 469.027 441.968C468.419 441.936 467.966 441.893 467.667 441.84C467.379 441.787 467.097 441.696 466.819 441.568C466.329 441.355 465.955 441.045 465.699 440.64C465.454 440.235 465.331 439.76 465.331 439.216C465.331 438.885 465.379 438.539 465.475 438.176L466.067 435.92L467.235 436.272L466.643 438.576C466.579 438.832 466.547 439.056 466.547 439.248C466.547 439.504 466.606 439.723 466.723 439.904C466.851 440.075 467.043 440.219 467.299 440.336C467.481 440.421 467.689 440.485 467.923 440.528C468.169 440.571 468.59 440.603 469.187 440.624C469.785 440.645 470.681 440.656 471.875 440.656H475.651C476.675 440.656 477.155 440.256 477.091 439.456V439.408L476.915 437.44L478.131 437.328L478.307 439.296V439.328C478.35 439.808 478.478 440.149 478.691 440.352C478.905 440.555 479.257 440.656 479.747 440.656H479.923L480.003 441.328L479.923 442H479.747C478.851 442 478.179 441.739 477.731 441.216C477.497 441.472 477.198 441.669 476.835 441.808C476.483 441.936 476.089 442 475.651 442H471.875H471.795ZM469.811 435.072H471.235V436.496H469.811V435.072ZM472.643 435.072H474.067V436.496H472.643V435.072ZM479.732 440.656H480.741C481.765 440.656 482.245 440.256 482.181 439.456V439.408L482.005 437.44L483.221 437.328L483.397 439.296V439.328C483.439 439.808 483.567 440.149 483.781 440.352C483.994 440.555 484.346 440.656 484.837 440.656L484.917 441.328L484.837 442C483.941 442 483.269 441.739 482.821 441.216C482.33 441.739 481.637 442 480.741 442H479.732V440.656ZM479.845 443.456H481.461V445.056H479.845V443.456ZM484.67 440.656H487.006C488.158 440.656 488.734 440.224 488.734 439.36C488.734 439.125 488.697 438.875 488.622 438.608L487.998 436.224L489.166 435.888L489.822 438.336C489.918 438.72 489.966 439.067 489.966 439.376C489.966 440.208 489.678 440.853 489.102 441.312C488.537 441.771 487.838 442 487.006 442H484.67V440.656ZM485.39 432.88H486.894L486.91 434.4H485.374L485.39 432.88ZM486.878 430.88H488.27V432.192H486.878V430.88ZM488.222 432.88H489.726L489.742 434.4H488.222V432.88ZM499.131 442C498.438 442 497.894 441.899 497.499 441.696C497.104 441.493 496.816 441.168 496.635 440.72C496.454 440.261 496.347 439.632 496.315 438.832L496.027 431.472L497.243 431.408L497.531 438.832C497.552 439.376 497.6 439.771 497.675 440.016C497.76 440.261 497.91 440.432 498.123 440.528C498.336 440.613 498.672 440.656 499.131 440.656H499.291L499.371 441.328L499.291 442H499.131ZM508.227 442C507.267 442 506.547 441.627 506.067 440.88C506.035 440.965 506.013 441.019 506.003 441.04C505.853 441.349 505.635 441.6 505.347 441.792C505.059 441.984 504.749 442.08 504.419 442.08C504.163 442.08 503.907 442.016 503.651 441.888L501.603 440.832C501.325 441.205 500.989 441.493 500.595 441.696C500.211 441.899 499.784 442 499.315 442H499.139V440.656H499.315C499.667 440.656 499.976 440.576 500.243 440.416C500.52 440.256 500.733 440.032 500.883 439.744L502.083 437.44C502.285 437.045 502.573 436.741 502.947 436.528C503.32 436.304 503.72 436.192 504.147 436.192C504.552 436.192 504.915 436.283 505.235 436.464C505.672 436.699 505.997 437.019 506.211 437.424C506.435 437.819 506.547 438.277 506.547 438.8C506.547 439.077 506.525 439.328 506.483 439.552C506.589 439.893 506.792 440.165 507.091 440.368C507.4 440.56 507.779 440.656 508.227 440.656L508.307 441.328L508.227 442ZM504.355 440.736C504.461 440.789 504.557 440.816 504.643 440.816C504.749 440.816 504.84 440.789 504.915 440.736C504.989 440.672 505.043 440.597 505.075 440.512L505.219 440.224C505.4 439.776 505.491 439.365 505.491 438.992C505.491 438.672 505.427 438.395 505.299 438.16C505.181 437.915 505 437.728 504.755 437.6C504.563 437.504 504.371 437.456 504.179 437.456C503.933 437.456 503.704 437.525 503.491 437.664C503.277 437.792 503.112 437.973 502.995 438.208L502.243 439.664L504.355 440.736ZM516.638 442C516.233 442 515.865 441.925 515.534 441.776C515.203 441.616 514.926 441.397 514.702 441.12C514.243 441.707 513.577 442 512.702 442C512.297 442 511.929 441.92 511.598 441.76C511.267 441.6 510.99 441.381 510.766 441.104C510.297 441.701 509.625 442 508.75 442H507.998V440.656H508.75C509.71 440.656 510.19 440.224 510.19 439.36V437.376H511.326V439.36V439.456C511.326 439.819 511.443 440.112 511.678 440.336C511.923 440.549 512.265 440.656 512.702 440.656C513.619 440.656 514.099 440.267 514.142 439.488V439.36V437.376H515.278V439.36V439.488C515.289 439.851 515.411 440.139 515.646 440.352C515.881 440.555 516.211 440.656 516.638 440.656C517.065 440.656 517.411 440.56 517.678 440.368C517.955 440.165 518.094 439.835 518.094 439.376C518.094 439.131 518.057 438.875 517.982 438.608L517.342 436.224L518.51 435.888L519.15 438.272C519.257 438.656 519.31 439.029 519.31 439.392C519.31 439.947 519.187 440.421 518.942 440.816C518.697 441.2 518.371 441.493 517.966 441.696C517.561 441.899 517.118 442 516.638 442ZM512.51 433.92H514.03V435.44H512.51V433.92ZM514.014 431.92H515.406V433.248H514.014V431.92ZM515.358 433.92H516.862V435.44H515.342L515.358 433.92ZM530.299 445.776C529.829 445.883 529.371 445.936 528.923 445.936C528.123 445.936 527.429 445.755 526.843 445.392C526.256 445.04 525.803 444.533 525.483 443.872C525.173 443.221 525.019 442.453 525.019 441.568C525.019 440.565 525.221 439.493 525.627 438.352L526.779 438.816C526.416 439.861 526.235 440.795 526.235 441.616C526.235 442.555 526.464 443.285 526.923 443.808C527.392 444.331 528.048 444.592 528.891 444.592C529.232 444.592 529.611 444.544 530.027 444.448C530.955 444.235 531.691 443.989 532.235 443.712C532.789 443.435 533.067 443.189 533.067 442.976C533.067 442.859 532.971 442.757 532.779 442.672C532.597 442.597 532.219 442.469 531.643 442.288L531.083 442.128C530.389 441.904 529.867 441.643 529.515 441.344C529.173 441.045 529.003 440.613 529.003 440.048C529.003 439.728 529.067 439.355 529.195 438.928C529.323 438.491 529.536 438.053 529.835 437.616C530.133 437.179 530.512 436.811 530.971 436.512C531.429 436.203 531.947 436.048 532.523 436.048C532.811 436.048 533.099 436.085 533.387 436.16L534.427 436.448L534.123 437.76L533.083 437.472C532.912 437.419 532.715 437.392 532.491 437.392C532.053 437.392 531.68 437.515 531.371 437.76C531.072 438.005 530.837 438.277 530.667 438.576C530.507 438.875 530.405 439.115 530.363 439.296C530.299 439.52 530.267 439.707 530.267 439.856C530.267 440.144 530.368 440.352 530.571 440.48C530.773 440.608 531.131 440.747 531.643 440.896C532.379 441.12 532.896 441.291 533.195 441.408C533.504 441.515 533.749 441.664 533.931 441.856C534.112 442.037 534.229 442.293 534.283 442.624C534.293 442.677 534.299 442.763 534.299 442.88C534.299 443.509 533.947 444.075 533.243 444.576C532.539 445.088 531.557 445.488 530.299 445.776ZM536.671 431.472L537.887 431.408L538.287 441.984L537.087 442.048L536.671 431.472ZM543.905 442C543.596 442 543.329 441.968 543.105 441.904C543.137 442.149 543.153 442.373 543.153 442.576C543.153 443.227 543.004 443.765 542.705 444.192C542.407 444.619 542.001 444.96 541.489 445.216C540.988 445.472 540.353 445.707 539.585 445.92L538.929 446.112L538.609 444.8L539.281 444.608C539.911 444.437 540.396 444.277 540.737 444.128C541.089 443.989 541.377 443.787 541.601 443.52C541.825 443.264 541.937 442.912 541.937 442.464C541.937 442.379 541.927 442.24 541.905 442.048L541.265 437.456L542.465 437.264L542.545 437.84C542.567 438.011 542.588 438.133 542.609 438.208L542.769 439.232C542.833 439.627 542.903 439.925 542.977 440.128C543.063 440.32 543.175 440.459 543.313 440.544C543.452 440.619 543.649 440.656 543.905 440.656H544.017L544.097 441.328L544.017 442H543.905ZM543.889 440.656H545.153C546.315 440.656 546.897 440.219 546.897 439.344C546.897 439.109 546.859 438.864 546.785 438.608L546.145 436.224L547.329 435.888L547.969 438.272C548.065 438.667 548.113 439.029 548.113 439.36C548.113 440.203 547.83 440.853 547.265 441.312C546.699 441.771 545.995 442 545.153 442H543.889V440.656ZM545.009 443.456H546.609V445.072H545.009V443.456ZM559.096 445.776C558.573 445.893 558.109 445.952 557.704 445.952C556.498 445.952 555.549 445.557 554.856 444.768C554.173 443.979 553.832 442.917 553.832 441.584C553.832 440.581 554.029 439.504 554.424 438.352L555.576 438.816C555.213 439.861 555.032 440.795 555.032 441.616C555.032 442.555 555.261 443.285 555.72 443.808C556.189 444.331 556.85 444.592 557.704 444.592C558.056 444.592 558.429 444.544 558.824 444.448C559.517 444.299 560.05 444.16 560.424 444.032C560.797 443.904 561.09 443.733 561.304 443.52C561.528 443.317 561.64 443.045 561.64 442.704C561.64 442.64 561.629 442.523 561.608 442.352C561.533 442 560.925 441.611 559.784 441.184L558.968 440.928L559.352 439.632C559.512 439.685 559.698 439.739 559.912 439.792C560.936 440.101 561.73 440.325 562.296 440.464C562.861 440.592 563.416 440.656 563.96 440.656L564.04 441.328L563.96 442C563.565 442 563.144 441.973 562.696 441.92C562.77 442.059 562.813 442.192 562.824 442.32C562.845 442.533 562.856 442.688 562.856 442.784C562.856 443.605 562.536 444.235 561.896 444.672C561.256 445.12 560.322 445.488 559.096 445.776ZM572.435 442C572.03 442 571.662 441.925 571.331 441.776C571 441.616 570.723 441.397 570.499 441.12C570.04 441.707 569.374 442 568.499 442C568.094 442 567.726 441.92 567.395 441.76C567.064 441.6 566.787 441.381 566.563 441.104C566.094 441.701 565.422 442 564.547 442H563.795V440.656H564.547C565.507 440.656 565.987 440.224 565.987 439.36V437.376H567.123V439.36V439.456C567.123 439.819 567.24 440.112 567.475 440.336C567.72 440.549 568.062 440.656 568.499 440.656C569.416 440.656 569.896 440.267 569.939 439.488V439.36V437.376H571.075V439.36V439.488C571.086 439.851 571.208 440.139 571.443 440.352C571.678 440.555 572.008 440.656 572.435 440.656C572.862 440.656 573.208 440.56 573.475 440.368C573.752 440.165 573.891 439.835 573.891 439.376C573.891 439.131 573.854 438.875 573.779 438.608L573.139 436.224L574.307 435.888L574.947 438.272C575.054 438.656 575.107 439.029 575.107 439.392C575.107 439.947 574.984 440.421 574.739 440.816C574.494 441.2 574.168 441.493 573.763 441.696C573.358 441.899 572.915 442 572.435 442ZM568.307 433.92H569.827V435.44H568.307V433.92ZM569.811 431.92H571.203V433.248H569.811V431.92ZM571.155 433.92H572.659V435.44H571.139L571.155 433.92ZM574.75 444.8L575.422 444.608C576.051 444.437 576.537 444.277 576.878 444.128C577.23 443.989 577.518 443.787 577.742 443.52C577.966 443.264 578.078 442.912 578.078 442.464C578.078 442.379 578.067 442.24 578.046 442.048L577.406 437.456L578.606 437.264L579.07 440.672L579.246 441.888C579.278 442.133 579.294 442.357 579.294 442.56C579.294 443.211 579.145 443.749 578.846 444.176C578.547 444.613 578.142 444.96 577.63 445.216C577.129 445.472 576.494 445.707 575.726 445.92L575.07 446.112L574.75 444.8ZM584.147 442C583.453 442 582.909 441.899 582.515 441.696C582.12 441.493 581.832 441.168 581.651 440.72C581.469 440.261 581.363 439.632 581.331 438.832L581.043 431.472L582.259 431.408L582.547 438.832C582.568 439.376 582.616 439.771 582.691 440.016C582.776 440.261 582.925 440.432 583.139 440.528C583.352 440.613 583.688 440.656 584.147 440.656H584.307L584.387 441.328L584.307 442H584.147ZM584.154 440.656H585.098C585.514 440.656 586.032 440.603 586.65 440.496C586.298 440.229 586.026 439.957 585.834 439.68C585.642 439.403 585.557 439.141 585.578 438.896L585.658 437.968C585.701 437.499 585.85 437.077 586.106 436.704C586.373 436.331 586.709 436.037 587.114 435.824C587.52 435.611 587.952 435.504 588.41 435.504C588.965 435.504 589.45 435.653 589.866 435.952C590.282 436.251 590.597 436.635 590.81 437.104C591.024 437.573 591.114 438.059 591.082 438.56L591.034 439.248C591.002 439.685 590.666 440.123 590.026 440.56C590.432 440.624 590.869 440.656 591.338 440.656H592.394L592.474 441.328L592.394 442H591.338C590.357 442 589.349 441.797 588.314 441.392C587.173 441.797 586.101 442 585.098 442H584.154V440.656ZM586.778 438.944C586.832 439.104 586.992 439.291 587.258 439.504C587.525 439.707 587.861 439.893 588.266 440.064C589.205 439.733 589.728 439.413 589.834 439.104L589.898 438.544C589.92 438.277 589.872 438.016 589.754 437.76C589.637 437.493 589.456 437.275 589.21 437.104C588.976 436.933 588.698 436.848 588.378 436.848C587.984 436.848 587.637 436.976 587.338 437.232C587.05 437.488 586.89 437.808 586.858 438.192L586.778 438.944ZM587.61 432.624H589.21V434.224H587.61V432.624ZM600.873 442C600.467 442 600.099 441.925 599.769 441.776C599.438 441.616 599.161 441.397 598.937 441.12C598.478 441.707 597.811 442 596.937 442C596.531 442 596.163 441.92 595.833 441.76C595.502 441.6 595.225 441.381 595.001 441.104C594.531 441.701 593.859 442 592.985 442H592.232V440.656H592.985C593.945 440.656 594.424 440.224 594.424 439.36V437.376H595.561V439.36V439.456C595.561 439.819 595.678 440.112 595.913 440.336C596.158 440.549 596.499 440.656 596.937 440.656C597.854 440.656 598.334 440.267 598.377 439.488V439.36V437.376H599.513V439.36V439.488C599.523 439.851 599.646 440.139 599.881 440.352C600.115 440.555 600.446 440.656 600.873 440.656C601.299 440.656 601.646 440.56 601.913 440.368C602.19 440.165 602.329 439.835 602.329 439.376C602.329 439.131 602.291 438.875 602.217 438.608L601.577 436.224L602.745 435.888L603.385 438.272C603.491 438.656 603.545 439.029 603.545 439.392C603.545 439.947 603.422 440.421 603.177 440.816C602.931 441.2 602.606 441.493 602.201 441.696C601.795 441.899 601.353 442 600.873 442ZM613.749 442C613.44 442 613.173 441.968 612.949 441.904C612.981 442.149 612.997 442.373 612.997 442.576C612.997 443.227 612.848 443.765 612.549 444.192C612.25 444.619 611.845 444.96 611.333 445.216C610.832 445.472 610.197 445.707 609.429 445.92L608.773 446.112L608.453 444.8L609.125 444.608C609.754 444.437 610.24 444.277 610.581 444.128C610.933 443.989 611.221 443.787 611.445 443.52C611.669 443.264 611.781 442.912 611.781 442.464C611.781 442.379 611.77 442.24 611.749 442.048L611.109 437.456L612.309 437.264L612.389 437.84C612.41 438.011 612.432 438.133 612.453 438.208L612.613 439.232C612.677 439.627 612.746 439.925 612.821 440.128C612.906 440.32 613.018 440.459 613.157 440.544C613.296 440.619 613.493 440.656 613.749 440.656H613.861L613.941 441.328L613.861 442H613.749ZM617.541 442C617.21 442 616.906 441.931 616.629 441.792C616.362 441.653 616.138 441.461 615.957 441.216C615.455 441.717 614.741 441.979 613.812 442H613.732V440.656H613.812C614.325 440.645 614.719 440.539 614.997 440.336C615.285 440.123 615.45 439.781 615.493 439.312L615.669 437.328L616.885 437.44L616.709 439.408V439.456C616.677 439.84 616.735 440.139 616.885 440.352C617.034 440.555 617.253 440.656 617.541 440.656H617.573L618.741 439.072C619.263 438.325 619.69 437.755 620.021 437.36C620.362 436.965 620.73 436.651 621.125 436.416C621.519 436.181 621.967 436.064 622.469 436.064C623.013 436.064 623.503 436.203 623.941 436.48C624.389 436.747 624.735 437.115 624.981 437.584C625.237 438.053 625.365 438.576 625.365 439.152C625.365 439.653 625.231 440.123 624.965 440.56C624.698 440.997 624.341 441.349 623.893 441.616C623.455 441.872 622.981 442 622.469 442H617.541ZM622.469 440.656C622.917 440.656 623.306 440.501 623.637 440.192C623.967 439.872 624.133 439.504 624.133 439.088C624.133 438.619 623.978 438.224 623.669 437.904C623.359 437.573 622.97 437.408 622.501 437.408C622.17 437.408 621.866 437.493 621.589 437.664C621.322 437.835 621.055 438.08 620.789 438.4C620.533 438.72 620.181 439.195 619.733 439.824L619.125 440.656H622.469ZM621.429 433.12H623.045V434.72H621.429V433.12ZM630.428 442C629.735 442 629.191 441.899 628.796 441.696C628.401 441.493 628.113 441.168 627.932 440.72C627.751 440.261 627.644 439.632 627.612 438.832L627.324 431.472L628.54 431.408L628.828 438.832C628.849 439.376 628.897 439.771 628.972 440.016C629.057 440.261 629.207 440.432 629.42 440.528C629.633 440.613 629.969 440.656 630.428 440.656H630.588L630.668 441.328L630.588 442H630.428ZM630.436 440.656H630.66C631.609 440.656 632.404 440.635 633.044 440.592C633.684 440.539 634.34 440.416 635.012 440.224L638.772 439.216L635.524 437.36C635.204 437.168 634.873 437.072 634.532 437.072C634.201 437.072 633.886 437.168 633.588 437.36C633.289 437.541 633.049 437.797 632.868 438.128L632.58 438.624L631.524 437.968L631.828 437.424C632.126 436.88 632.51 436.459 632.98 436.16C633.46 435.861 633.972 435.712 634.516 435.712C635.07 435.712 635.604 435.867 636.116 436.176L640.196 438.64L640.004 440.208L635.316 441.536C634.569 441.739 633.849 441.867 633.156 441.92C632.462 441.973 631.625 442 630.644 442H630.436V440.656ZM651.173 445.792C650.704 445.909 650.229 445.968 649.749 445.968C648.96 445.968 648.277 445.787 647.701 445.424C647.125 445.061 646.683 444.549 646.373 443.888C646.064 443.227 645.909 442.459 645.909 441.584C645.909 440.603 646.107 439.536 646.501 438.384L647.669 438.832C647.307 439.877 647.125 440.811 647.125 441.632C647.125 442.571 647.349 443.307 647.797 443.84C648.256 444.373 648.901 444.64 649.733 444.64C650.117 444.64 650.507 444.587 650.901 444.48L651.221 444.4C651.883 444.24 652.384 444.085 652.725 443.936C653.067 443.787 653.339 443.541 653.541 443.2C653.744 442.869 653.835 442.395 653.813 441.776L653.413 431.472L654.613 431.408L655.013 441.712C655.045 442.629 654.901 443.355 654.581 443.888C654.261 444.421 653.829 444.816 653.285 445.072C652.741 445.339 652.037 445.579 651.173 445.792ZM660.256 442C659.563 442 659.019 441.899 658.624 441.696C658.229 441.493 657.941 441.168 657.76 440.72C657.579 440.261 657.472 439.632 657.44 438.832L657.152 431.472L658.368 431.408L658.656 438.832C658.677 439.376 658.725 439.771 658.8 440.016C658.885 440.261 659.035 440.432 659.248 440.528C659.461 440.613 659.797 440.656 660.256 440.656H660.416L660.496 441.328L660.416 442H660.256ZM660.264 440.656H660.488C661.437 440.656 662.232 440.635 662.872 440.592C663.512 440.539 664.168 440.416 664.84 440.224L668.6 439.216L665.352 437.36C665.032 437.168 664.701 437.072 664.36 437.072C664.029 437.072 663.714 437.168 663.416 437.36C663.117 437.541 662.877 437.797 662.696 438.128L662.408 438.624L661.352 437.968L661.656 437.424C661.954 436.88 662.338 436.459 662.808 436.16C663.288 435.861 663.8 435.712 664.344 435.712C664.898 435.712 665.432 435.867 665.944 436.176L670.024 438.64L669.832 440.208L665.144 441.536C664.397 441.739 663.677 441.867 662.984 441.92C662.29 441.973 661.453 442 660.472 442H660.264V440.656ZM669.672 444.8L670.344 444.608C670.973 444.437 671.459 444.277 671.8 444.128C672.152 443.989 672.44 443.787 672.664 443.52C672.888 443.264 673 442.912 673 442.464C673 442.379 672.989 442.24 672.968 442.048L672.328 437.456L673.528 437.264L673.992 440.672L674.168 441.888C674.2 442.133 674.216 442.357 674.216 442.56C674.216 443.211 674.067 443.749 673.768 444.176C673.469 444.613 673.064 444.96 672.552 445.216C672.051 445.472 671.416 445.707 670.648 445.92L669.992 446.112L669.672 444.8ZM678.776 442C677.986 442 677.357 441.845 676.888 441.536C676.429 441.216 676.173 440.8 676.12 440.288C676.066 440.064 676.04 439.712 676.04 439.232H677.16C677.16 439.563 677.181 439.829 677.224 440.032C677.266 440.256 677.394 440.416 677.608 440.512C677.832 440.608 678.157 440.656 678.584 440.656H679.672C680.781 440.656 681.336 440.325 681.336 439.664C681.336 439.504 681.314 439.355 681.272 439.216C681.101 438.661 680.781 437.979 680.312 437.168C679.842 436.357 679.325 435.552 678.76 434.752L679.736 433.952C680.365 434.816 680.936 435.701 681.448 436.608C681.96 437.504 682.296 438.272 682.456 438.912C682.52 439.168 682.552 439.424 682.552 439.68C682.552 440.363 682.296 440.923 681.784 441.36C681.282 441.787 680.525 442 679.512 442H678.776Z" fill="#8A8B8D"/>
<rect x="449.5" y="469" width="185" height="45" rx="12" fill="#1D434C"/>
<path d="M474.256 498.776C473.733 498.893 473.259 498.952 472.832 498.952C472 498.952 471.28 498.765 470.672 498.392C470.064 498.019 469.6 497.491 469.28 496.808C468.96 496.125 468.8 495.331 468.8 494.424C468.8 493.4 469.003 492.312 469.408 491.16L470.816 491.72C470.464 492.712 470.288 493.624 470.288 494.456C470.288 495.352 470.507 496.045 470.944 496.536C471.392 497.037 472.021 497.288 472.832 497.288C473.205 497.288 473.568 497.245 473.92 497.16C474.613 497 475.141 496.856 475.504 496.728C475.867 496.611 476.149 496.456 476.352 496.264C476.555 496.072 476.656 495.821 476.656 495.512C476.656 495.448 476.645 495.341 476.624 495.192C476.571 494.915 476.112 494.611 475.248 494.28L474.128 493.912L474.592 492.344C474.677 492.365 474.864 492.419 475.152 492.504C476.293 492.835 477.115 493.059 477.616 493.176C478.128 493.283 478.629 493.336 479.12 493.336L479.216 494.168L479.12 495C478.747 495 478.389 494.984 478.048 494.952C478.08 495.016 478.096 495.08 478.096 495.144C478.117 495.357 478.128 495.507 478.128 495.592C478.128 496.445 477.803 497.112 477.152 497.592C476.501 498.083 475.536 498.477 474.256 498.776ZM483.431 495C482.514 495 481.847 494.728 481.431 494.184C480.919 494.728 480.22 495 479.335 495H478.967V493.336H479.335C480.231 493.336 480.668 492.963 480.647 492.216L480.343 484.312L481.815 484.232L482.103 491.8L482.119 491.928C482.151 492.493 482.279 492.872 482.503 493.064C482.727 493.245 483.036 493.336 483.431 493.336H483.751L483.847 494.168L483.751 495H483.431ZM487.384 495C486.723 494.989 486.195 494.744 485.8 494.264C485.256 494.733 484.547 494.979 483.672 495H483.592V493.336H483.672C484.141 493.336 484.504 493.245 484.76 493.064C485.027 492.872 485.181 492.563 485.224 492.136L485.4 490.168L486.872 490.312L486.696 492.264V492.28C486.664 492.632 486.712 492.899 486.84 493.08C486.968 493.251 487.165 493.336 487.432 493.336L488.536 491.832C489.08 491.064 489.528 490.477 489.88 490.072C490.232 489.656 490.611 489.331 491.016 489.096C491.421 488.861 491.875 488.744 492.376 488.744C492.941 488.744 493.453 488.888 493.912 489.176C494.381 489.464 494.744 489.859 495 490.36C495.267 490.851 495.4 491.395 495.4 491.992C495.4 492.525 495.261 493.021 494.984 493.48C494.707 493.939 494.333 494.307 493.864 494.584C493.405 494.861 492.909 495 492.376 495H487.384ZM492.376 493.336C492.803 493.336 493.165 493.197 493.464 492.92C493.763 492.643 493.912 492.312 493.912 491.928C493.912 491.501 493.768 491.144 493.48 490.856C493.203 490.557 492.845 490.408 492.408 490.408C492.109 490.408 491.832 490.488 491.576 490.648C491.32 490.808 491.059 491.048 490.792 491.368C490.525 491.677 490.179 492.141 489.752 492.76L489.336 493.336H492.376ZM497.467 484.312L498.955 484.232L499.355 494.984L497.883 495.048L497.467 484.312ZM508.167 493.816C508.103 493.827 508.007 493.832 507.879 493.832C507.345 493.832 506.833 493.645 506.343 493.272C505.852 492.888 505.516 492.429 505.335 491.896C505.239 491.608 505.191 491.315 505.191 491.016C505.191 490.419 505.361 489.869 505.703 489.368C506.055 488.856 506.513 488.509 507.079 488.328L509.335 487.576V486.904H510.823V491.656C510.823 492.125 510.993 492.525 511.335 492.856C511.676 493.176 512.092 493.336 512.583 493.336H512.887L512.983 494.168L512.887 495H512.583C512.028 495 511.511 494.872 511.031 494.616C510.561 494.349 510.183 493.992 509.895 493.544C509.095 493.683 508.519 493.773 508.167 493.816ZM506.727 491.304C506.791 491.539 506.929 491.747 507.143 491.928C507.367 492.099 507.607 492.184 507.863 492.184C507.948 492.184 508.012 492.179 508.055 492.168L509.351 491.96C509.34 491.896 509.335 491.795 509.335 491.656V489.208L507.543 489.832C507.265 489.917 507.052 490.067 506.903 490.28C506.753 490.483 506.679 490.712 506.679 490.968C506.679 491.075 506.695 491.187 506.727 491.304ZM512.732 493.336H512.989C514.354 493.336 515.794 493.123 517.309 492.696L520.892 491.672L517.789 490.12C517.501 489.96 517.202 489.88 516.893 489.88C516.583 489.88 516.29 489.965 516.013 490.136C515.735 490.307 515.511 490.541 515.341 490.84L515.053 491.352L513.773 490.552L514.077 489.992C514.397 489.416 514.797 488.979 515.277 488.68C515.757 488.381 516.279 488.232 516.845 488.232C517.389 488.232 517.943 488.381 518.509 488.68L522.621 490.92L522.397 492.808L521.949 492.952C522.183 493.208 522.487 493.336 522.861 493.336H523.885L523.981 494.168L523.885 495H522.861C522.338 495 521.858 494.856 521.421 494.568C520.994 494.269 520.669 493.885 520.445 493.416L517.725 494.28C516.178 494.76 514.594 495 512.973 495H512.732V493.336ZM523.717 493.336H524.677C525.05 493.336 525.45 493.304 525.877 493.24C525.269 492.717 524.986 492.216 525.029 491.736L525.125 490.808C525.168 490.307 525.322 489.859 525.589 489.464C525.856 489.069 526.202 488.76 526.629 488.536C527.056 488.312 527.509 488.2 527.989 488.2C528.554 488.2 529.061 488.355 529.509 488.664C529.957 488.973 530.293 489.373 530.517 489.864C530.752 490.355 530.853 490.867 530.821 491.4L530.773 492.12C530.741 492.504 530.485 492.893 530.005 493.288C530.293 493.32 530.597 493.336 530.917 493.336H532.021L532.117 494.168L532.021 495H530.917C529.946 495 528.944 494.797 527.909 494.392C527.386 494.584 526.842 494.733 526.277 494.84C525.712 494.947 525.178 495 524.677 495H523.717V493.336ZM526.517 491.8C526.581 491.949 526.725 492.115 526.949 492.296C527.184 492.467 527.482 492.632 527.845 492.792C528.709 492.504 529.189 492.221 529.285 491.944L529.349 491.384C529.381 491.139 529.338 490.899 529.221 490.664C529.114 490.429 528.949 490.237 528.725 490.088C528.512 489.928 528.261 489.848 527.973 489.848C527.61 489.848 527.29 489.965 527.013 490.2C526.746 490.424 526.597 490.717 526.565 491.08L526.517 491.8ZM527.125 485.208H528.901V486.968H527.125V485.208ZM535.65 495C534.988 494.989 534.46 494.744 534.066 494.264C533.522 494.733 532.812 494.979 531.938 495H531.857V493.336H531.938C532.407 493.336 532.77 493.245 533.026 493.064C533.292 492.872 533.447 492.563 533.49 492.136L533.666 490.168L535.138 490.312L534.962 492.264V492.28C534.93 492.632 534.978 492.899 535.106 493.08C535.234 493.251 535.431 493.336 535.698 493.336L536.802 491.832C537.346 491.064 537.794 490.477 538.146 490.072C538.498 489.656 538.876 489.331 539.282 489.096C539.687 488.861 540.14 488.744 540.642 488.744C541.207 488.744 541.719 488.888 542.178 489.176C542.647 489.464 543.01 489.859 543.266 490.36C543.532 490.851 543.666 491.395 543.666 491.992C543.666 492.525 543.527 493.021 543.25 493.48C542.972 493.939 542.599 494.307 542.13 494.584C541.671 494.861 541.175 495 540.642 495H535.65ZM540.642 493.336C541.068 493.336 541.431 493.197 541.73 492.92C542.028 492.643 542.178 492.312 542.178 491.928C542.178 491.501 542.034 491.144 541.746 490.856C541.468 490.557 541.111 490.408 540.674 490.408C540.375 490.408 540.098 490.488 539.842 490.648C539.586 490.808 539.324 491.048 539.058 491.368C538.791 491.677 538.444 492.141 538.018 492.76L537.602 493.336H540.642ZM552.167 493.816C552.103 493.827 552.007 493.832 551.879 493.832C551.345 493.832 550.833 493.645 550.343 493.272C549.852 492.888 549.516 492.429 549.335 491.896C549.239 491.608 549.191 491.315 549.191 491.016C549.191 490.419 549.361 489.869 549.703 489.368C550.055 488.856 550.513 488.509 551.079 488.328L553.335 487.576V486.904H554.823V491.656C554.823 492.125 554.993 492.525 555.335 492.856C555.676 493.176 556.092 493.336 556.583 493.336H556.887L556.983 494.168L556.887 495H556.583C556.028 495 555.511 494.872 555.031 494.616C554.561 494.349 554.183 493.992 553.895 493.544C553.095 493.683 552.519 493.773 552.167 493.816ZM550.727 491.304C550.791 491.539 550.929 491.747 551.143 491.928C551.367 492.099 551.607 492.184 551.863 492.184C551.948 492.184 552.012 492.179 552.055 492.168L553.351 491.96C553.34 491.896 553.335 491.795 553.335 491.656V489.208L551.543 489.832C551.265 489.917 551.052 490.067 550.903 490.28C550.753 490.483 550.679 490.712 550.679 490.968C550.679 491.075 550.695 491.187 550.727 491.304ZM556.732 493.336H557.997C558.509 493.336 558.903 493.251 559.181 493.08C559.469 492.909 559.613 492.616 559.613 492.2C559.613 491.987 559.575 491.752 559.501 491.496L558.861 489.112L560.301 488.696L560.941 491.08C561.047 491.464 561.101 491.837 561.101 492.2C561.101 493.075 560.807 493.763 560.221 494.264C559.634 494.755 558.893 495 557.997 495H556.732V493.336ZM557.037 496.408H558.797V498.184H557.037V496.408ZM573.22 495C572.015 495 571.103 494.989 570.484 494.968C569.876 494.936 569.412 494.893 569.092 494.84C568.783 494.776 568.484 494.685 568.196 494.568C567.695 494.344 567.311 494.019 567.044 493.592C566.777 493.165 566.644 492.669 566.644 492.104C566.644 491.763 566.692 491.4 566.788 491.016L567.38 488.728L568.804 489.144L568.196 491.496C568.143 491.677 568.116 491.875 568.116 492.088C568.116 492.323 568.169 492.515 568.276 492.664C568.383 492.813 568.553 492.941 568.788 493.048C569.044 493.155 569.439 493.229 569.972 493.272C570.516 493.315 571.631 493.336 573.316 493.336H577.076C577.567 493.336 577.913 493.256 578.116 493.096C578.319 492.925 578.409 492.664 578.388 492.312V492.28L578.212 490.312L579.7 490.168L579.876 492.136V492.184C579.919 492.621 580.031 492.925 580.212 493.096C580.404 493.256 580.724 493.336 581.172 493.336H581.348L581.444 494.168L581.348 495H581.172C580.287 495 579.615 494.755 579.156 494.264C578.911 494.499 578.612 494.68 578.26 494.808C577.908 494.936 577.513 495 577.076 495H573.316H573.22ZM571.092 487.768H572.66V489.352H571.092V487.768ZM574.068 487.768H575.636V489.352H574.068V487.768ZM589.538 495C588.727 495 588.071 494.691 587.57 494.072C587.079 494.691 586.391 495 585.506 495C584.706 495 584.071 494.691 583.602 494.072C583.09 494.691 582.413 495 581.57 495H581.17V493.336H581.57C582.082 493.336 582.429 493.229 582.61 493.016C582.791 492.803 582.882 492.531 582.882 492.2V490.232H584.274V492.2C584.274 492.435 584.354 492.685 584.514 492.952C584.674 493.208 585.005 493.336 585.506 493.336C586.018 493.336 586.359 493.235 586.53 493.032C586.711 492.819 586.802 492.541 586.802 492.2V490.232H588.194V492.216C588.194 492.429 588.274 492.669 588.434 492.936C588.605 493.192 588.941 493.32 589.442 493.32C589.911 493.32 590.253 493.24 590.466 493.08C590.69 492.92 590.802 492.712 590.802 492.456C590.802 492.36 590.786 492.264 590.754 492.168L590.226 490.2L591.57 489.8L592.098 491.768L592.13 491.88C592.247 492.317 592.477 492.669 592.818 492.936C593.159 493.203 593.554 493.336 594.002 493.336L594.098 494.168L594.002 495C593.543 495 593.122 494.915 592.738 494.744C592.354 494.563 592.018 494.312 591.73 493.992C591.495 494.301 591.191 494.547 590.818 494.728C590.445 494.909 590.018 495 589.538 495ZM585.234 486.872H586.914L586.93 488.552H585.234V486.872ZM586.818 484.728H588.354V486.168H586.818V484.728ZM588.226 486.872H589.906V488.552H588.226V486.872ZM593.842 493.336H597.218C597.463 493.336 597.655 493.283 597.794 493.176C598.029 493.005 598.146 492.776 598.146 492.488C598.146 492.307 598.093 492.131 597.986 491.96L594.434 486.936L594.77 485.688L600.546 483.56L601.074 485.112L596.29 486.856L599.106 490.968C599.479 491.555 599.666 492.131 599.666 492.696C599.666 493.293 599.463 493.805 599.058 494.232C598.631 494.744 598.013 495 597.202 495H593.842V493.336ZM598.818 481.816L599.186 482.856L595.298 484.264L594.914 483.224L598.818 481.816ZM600.422 497.496L601.206 497.288C601.793 497.128 602.246 496.979 602.566 496.84C602.897 496.701 603.158 496.509 603.35 496.264C603.553 496.029 603.654 495.715 603.654 495.32C603.654 495.245 603.643 495.112 603.622 494.92L602.982 490.312L604.454 490.088L604.918 493.48L604.966 493.816L605.078 494.728C605.11 494.984 605.126 495.219 605.126 495.432C605.126 496.392 604.827 497.128 604.23 497.64C603.643 498.152 602.763 498.568 601.59 498.888L600.806 499.096L600.422 497.496ZM602.646 486.584H604.406V488.344H602.646V486.584ZM610.242 495C609.527 495 608.962 494.893 608.546 494.68C608.13 494.467 607.826 494.125 607.634 493.656C607.442 493.176 607.33 492.515 607.298 491.672L607.01 484.312L608.498 484.248L608.786 491.672C608.807 492.184 608.85 492.552 608.914 492.776C608.989 492.989 609.117 493.139 609.298 493.224C609.49 493.299 609.805 493.336 610.242 493.336H610.402L610.498 494.168L610.402 495H610.242ZM610.248 493.336H611.512C612.024 493.336 612.419 493.251 612.696 493.08C612.984 492.909 613.128 492.616 613.128 492.2C613.128 491.987 613.091 491.752 613.016 491.496L612.376 489.112L613.816 488.696L614.456 491.08C614.563 491.464 614.616 491.837 614.616 492.2C614.616 493.075 614.323 493.763 613.736 494.264C613.149 494.755 612.408 495 611.512 495H610.248V493.336ZM610.552 496.408H612.312V498.184H610.552V496.408Z" fill="white"/>
<defs>
<linearGradient id="paint0_linear_1226_11334" x1="508" y1="221" x2="508" y2="353" gradientUnits="userSpaceOnUse">
<stop stop-color="#84ABB4"/>
<stop offset="1" stop-color="#394A4E"/>
</linearGradient>
</defs>
</svg>
