<svg width="66" height="66" viewBox="0 0 66 66" fill="none" xmlns="http://www.w3.org/2000/svg">
<path d="M45.3722 26.9536C46.2713 26.0545 46.2713 24.5967 45.3722 23.6976C44.4731 22.7985 43.0153 22.7985 42.1162 23.6976L28.3953 37.4184L23.8838 32.9069C22.9847 32.0078 21.5269 32.0078 20.6278 32.9069C19.7287 33.806 19.7287 35.2638 20.6278 36.1629L26.7674 42.3024C27.6665 43.2015 29.1242 43.2015 30.0233 42.3024L45.3722 26.9536Z" fill="white"/>
<path fill-rule="evenodd" clip-rule="evenodd" d="M33 0C14.7746 0 0 14.7746 0 33C0 51.2254 14.7746 66 33 66C51.2254 66 66 51.2254 66 33C66 14.7746 51.2254 0 33 0ZM4.60465 33C4.60465 17.3177 17.3177 4.60465 33 4.60465C48.6823 4.60465 61.3953 17.3177 61.3953 33C61.3953 48.6823 48.6823 61.3953 33 61.3953C17.3177 61.3953 4.60465 48.6823 4.60465 33Z" fill="white"/>
</svg>
