<svg width="40" height="25" viewBox="0 0 40 25" fill="none" xmlns="http://www.w3.org/2000/svg">
<path d="M9.50914 3.66971C10.3844 3.66971 11.094 2.96015 11.094 2.08486C11.094 1.20956 10.3844 0.5 9.50914 0.5C8.63385 0.5 7.92428 1.20956 7.92428 2.08486C7.92428 2.96015 8.63385 3.66971 9.50914 3.66971Z" fill="white"/>
<path d="M30.1123 10.7223V18.2504C30.1123 19.9144 31.3457 21.1824 32.965 21.1824C34.5681 21.1824 35.8177 19.9142 35.8174 18.2989L35.8177 10.7223C35.8178 9.62824 36.7047 8.74133 37.7988 8.74125H39.7799V18.0919C39.7799 21.8557 36.7288 24.9068 32.965 24.9068C29.2013 24.9068 26.1501 21.8557 26.1501 18.0919V8.74125H28.1312C29.2253 8.74125 30.1123 9.62821 30.1123 10.7223Z" fill="white"/>
<path fill-rule="evenodd" clip-rule="evenodd" d="M20.9993 2.7188H22.9804V22.9257C22.9804 24.0198 22.0935 24.9068 20.9993 24.9068H19.0183V4.69987C19.0183 3.60576 19.9052 2.7188 20.9993 2.7188Z" fill="white"/>
<path d="M3.96214 2.7188L3.96205 10.2415C5.21618 9.10531 6.81582 8.42428 8.55822 8.42428C12.5846 8.42428 15.8486 12.0608 15.8486 16.5467C15.8486 16.5809 15.8484 16.6151 15.848 16.6492C15.8484 16.681 15.8486 16.7128 15.8486 16.7448C15.848 21.3804 12.3007 24.9068 7.92428 24.9068C3.62505 24.9068 0.125478 21.3804 0.00329976 16.9826L0 16.9825V4.69987C0 3.59899 0.897218 2.7188 1.98107 2.7188H3.96214ZM7.84504 12.0695C5.56928 12.0695 3.72441 14.1094 3.72441 16.6259C3.72441 19.1424 5.56928 21.1824 7.84504 21.1824C10.1208 21.1824 11.9657 19.1424 11.9657 16.6259C11.9657 14.1094 10.1208 12.0695 7.84504 12.0695Z" fill="white"/>
</svg>
