<svg width="34" height="33" viewBox="0 0 34 33" fill="none" xmlns="http://www.w3.org/2000/svg">
<g id="Component 2">
<path id="Vector" fill-rule="evenodd" clip-rule="evenodd" d="M28.0559 7.17627C29.5287 7.17627 30.7226 8.37018 30.7226 9.84294V23.1763C30.7226 24.6491 29.5287 25.843 28.0559 25.843H6.72257C5.24981 25.843 4.05591 24.6491 4.05591 23.1763V9.84294C4.05591 8.37018 5.24981 7.17627 6.72257 7.17627H28.0559ZM6.88937 19.1763L6.72257 19.1799V21.8546C6.77692 21.847 6.8326 21.843 6.88937 21.843C7.53355 21.843 8.05591 22.3652 8.05591 23.0096L8.05295 23.0939L8.04421 23.1763H10.719L10.7226 23.0096C10.7226 20.8926 9.00647 19.1763 6.88937 19.1763ZM27.8891 19.1763C25.8477 19.1763 24.179 20.7722 24.0624 22.7844L24.0559 23.0096C24.0559 23.0655 24.0571 23.121 24.0595 23.1763H26.7342C26.7266 23.122 26.7226 23.0663 26.7226 23.0096C26.7226 22.3652 27.2448 21.843 27.8891 21.843C27.9459 21.843 28.0015 21.847 28.0559 21.8546V19.1799L27.8891 19.1763ZM17.3892 11.1763C14.4437 11.1763 12.0559 13.5641 12.0559 16.5096C12.0559 19.4551 14.4437 21.843 17.3892 21.843C20.3347 21.843 22.7226 19.4551 22.7226 16.5096C22.7226 13.5641 20.3347 11.1763 17.3892 11.1763ZM17.3892 13.843C18.862 13.843 20.0559 15.0368 20.0559 16.5096C20.0559 17.9824 18.862 19.1763 17.3892 19.1763C15.9164 19.1763 14.7226 17.9824 14.7226 16.5096C14.7226 15.0368 15.9164 13.843 17.3892 13.843ZM10.7226 9.84294H8.05591V10.0096C8.05591 10.654 7.53355 11.1763 6.88937 11.1763C6.8326 11.1763 6.77692 11.1723 6.72257 11.1646V13.8393L6.88937 13.8429C9.00647 13.8429 10.7226 12.1266 10.7226 10.0096V9.84294ZM26.7342 9.84294H24.0595L24.0559 10.0096C24.0559 12.051 25.6517 13.7198 27.6639 13.8364L27.9727 13.842L28.0559 13.8393V11.1646C28.0015 11.1723 27.9459 11.1763 27.8891 11.1763C27.2448 11.1763 26.7226 10.654 26.7226 10.0096L26.7255 9.92534L26.7342 9.84294Z" fill="#14532d"/>
</g>
</svg>
