<?xml version="1.0" encoding="UTF-8"?>
<svg xmlns="http://www.w3.org/2000/svg" version="1.1" viewBox="0 0 255.1 170.1">
  <defs>
    <style>
      .cls-1 {
        fill: #7f7f7f;
      }

      .cls-2 {
        fill: #fefefe;
      }

      .cls-3 {
        fill: #bebebe;
      }
    </style>
  </defs>
  <!-- Generator: Adobe Illustrator 28.7.1, SVG Export Plug-In . SVG Version: 1.2.0 Build 142)  -->
  <g>
    <g id="Layer_1">
      <g>
        <path class="cls-3" d="M298.9,49.2c-114.3,0-228.5,0-342.8,0-.4,0-.8,0-1.1,0,0,0-.1,0-.2,0,0,0,0-.2,0-.2.2,0,.5,0,.7,0,114.2,0,228.4,0,342.5,0,.3,0,.6-.2.8.2Z"/>
        <path class="cls-1" d="M-45,135.2c.3,0,.7,0,1,0,114.3,0,228.6,0,342.9,0,0,0,0,.2,0,.2-.2,0-.5,0-.7,0H-45c0,0,0-.1,0-.2Z"/>
        <path class="cls-1" d="M-45,135.2c0,0,0,.1,0,.2-.4-.2-.2-.5-.2-.7,0-4.3,0-8.5,0-12.8V49.2c0,0,.1,0,.2,0,0,.2,0,.5,0,.7,0,28.3,0,56.6,0,84.8,0,.1,0,.3,0,.4Z"/>
        <path class="cls-2" d="M5,92.3c0-5.1,0-10.1,0-15.2,0-.7.2-.8.8-.8,6.5,0,13,0,19.5,0,8.3,0,15.3,6.2,16.2,14.4.8,7.2-3.9,14.3-11.2,16.6-1.7.6-3.5.9-5.4.9-6.3,0-12.6,0-18.9,0-.9,0-1-.3-1-1.1,0-5,0-10,0-14.9Z"/>
        <path class="cls-2" d="M230,109.5c-2.3.1-5.2,0-8.1-1.3-7.2-3-11.4-10.6-10.3-18.4,1.1-7.5,6.4-13.3,13.9-14.5,4.4-.7,9-.8,13.4.7,6.7,2.4,11.2,9.1,11.2,16.3,0,8.4-5.8,15.3-14,16.9-1.8.3-3.6.2-6.1.3Z"/>
        <path class="cls-2" d="M189,109.4c-2.9.2-5.9,0-8.7-1.3-6.2-2.8-9.7-7.6-10.4-14.4-1-9.9,6.6-18.6,16.5-18.9,2.6,0,5.3-.3,7.9.2,7.4,1.5,12,6.1,13.8,13.4,2,8.5-3.1,17.3-11.4,20.1-2.5.8-5,.9-7.7.8Z"/>
        <path class="cls-2" d="M131.6,76.3c2.2,0,4.4,0,6.5,0,.5,0,.6.3.8.6,3.6,6.4,7.1,12.8,10.6,19.1.7,1.2,1.3,2.4,2.1,3.7,1.1-2.1,2.2-4,3.4-6,3.1-5.7,6.3-11.3,9.4-17,.2-.3.4-.5.8-.5,2.1,0,4.3,0,6.6,0-.6,1.1-1.1,2-1.6,3-5.2,9.4-10.5,18.9-15.7,28.3-.3.5-.5.7-1.1.6-1.2,0-2.3,0-3.5,0-.4,0-.7,0-.9-.5-5.8-10.4-11.6-20.8-17.3-31.3,0,0,0,0,0-.2Z"/>
        <path class="cls-2" d="M59.8,84.6c-2.1,3.8-4.2,7.5-6.2,11.2-2.2,3.9-4.4,7.9-6.5,11.8-.3.5-.5.7-1.1.6-2.1,0-4.1,0-6.2,0-.1-.3.1-.6.3-.8,5.6-10.1,11.3-20.3,16.9-30.4.3-.6.6-.8,1.3-.7,1.1,0,2.2,0,3.3,0,.5,0,.7.1.9.5,5.7,10.2,11.4,20.5,17.1,30.7.1.2.3.4.2.7-2.1,0-4.3,0-6.5,0-.5,0-.6-.4-.8-.7-3.8-6.8-7.5-13.6-11.3-20.4-.5-.8-.9-1.6-1.4-2.6Z"/>
        <path class="cls-2" d="M142.4,108.2c-2.3,0-4.4,0-6.6,0-.6,0-.7-.4-.9-.8-3.2-5.8-6.4-11.5-9.6-17.3-2.4-4.4-4.8-8.7-7.3-13.1-.1-.2-.3-.5-.4-.9,2.3,0,4.5,0,6.7,0,.4,0,.5.4.6.6,4.9,8.8,9.8,17.6,14.6,26.3.9,1.6,1.8,3.2,2.8,5Z"/>
        <path class="cls-2" d="M98.8,89.3c5,0,10,0,14.9,0,.7,0,.9.2.9.9,0,1.3,0,2.6,0,3.9,0,.8-.2,1-1,1-7.1,0-14.2,0-21.4,0-2.8,0-5.7,0-8.5,0-.8,0-1-.2-.9-1,0-1.3,0-2.6,0-3.9,0-.7.1-1,.9-1,5,0,10,0,15,0Z"/>
        <path class="cls-2" d="M98.8,102.4c5,0,9.9,0,14.9,0,.8,0,1,.3,1,1,0,1.4,0,2.8,0,4.2,0,.5-.1.6-.6.6-10.2,0-20.3,0-30.5,0-.6,0-.7-.2-.7-.7,0-1.4,0-2.8,0-4.3,0-.7.1-.9.8-.9,5,0,10.1,0,15.1,0Z"/>
        <path class="cls-2" d="M98.7,76.3c5,0,10.1,0,15.1,0,.6,0,.8.1.8.8,0,1.4,0,2.9,0,4.3,0,.5-.1.6-.6.6-10.2,0-20.4,0-30.6,0-.5,0-.6-.1-.6-.6,0-1.4,0-2.9,0-4.3,0-.6.1-.9.8-.9,5,0,10,0,15,0Z"/>
      </g>
    </g>
  </g>
</svg>