<?xml version="1.0" encoding="UTF-8"?>
<svg xmlns="http://www.w3.org/2000/svg" version="1.1" viewBox="0 0 255.1 170.1">
  <defs>
    <style>
      .cls-1 {
        fill: #0eaf9d;
      }
    </style>
  </defs>
  <!-- Generator: Adobe Illustrator 28.7.1, SVG Export Plug-In . SVG Version: 1.2.0 Build 142)  -->
  <g>
    <g id="Layer_1">
      <g>
        <path class="cls-1" d="M254.5,89.6c-3,12.8-10.9,20.9-23.2,25-3.1,1-6.3,1.4-9.6,1.5-15.6.2-31.2,0-46.9,0-.9,0-1.7,0-2.6-.3-1.4-.4-2.1-1.3-2.1-2.7,0-3.6,2.1-6.6,5.5-7.6.8-.2,1.7-.2,2.6-.2,13.9,0,27.9,0,41.8,0,11.1,0,21.1-8.3,23-19.2,1-5.7-.7-10.7-4.7-14.8-4-4.2-8.8-7-14.6-8-.9-.2-1.9-.2-2.8-.2-11.7,0-23.4,0-35.1,0-2.5,0-5.1,0-7.6,0-4.6,0-7.8-3-8.1-7.6-.2-2.3,1.1-3.7,3.5-3.7,5.5-.2,11,0,16.5,0,5.6,0,11.1,0,16.7,0,5.3,0,10.6,0,15.9.1,15.7.5,29.1,11.6,31.9,26.4.2,1.1.2,10.5,0,11.6Z"/>
        <path class="cls-1" d="M.5,109.8c1.2-3.4,4.2-5.6,8-5.7,2.6,0,5.2,0,7.8-.5,8.1-1.6,14.8-8.3,16.3-16.4.3-1.6.5-3.3.5-4.9.1-5,2.7-8.1,7.4-8.8,2.1-.3,3.7.8,3.9,2.8.8,7.1,0,14.1-3,20.7-4.7,10.2-12.8,16.3-23.8,18.5-4.8.9-9.7.7-14.6.5-1.6,0-3.2-.2-3.2-2.4s.3-3.2.5-3.7Z"/>
        <path class="cls-1" d="M99.6,116.1c-9,0-16.4,0-23.8,0-.8,0-1.5,0-2.3-.2-1.9-.4-2.7-1.6-2.5-3.5.5-4.4,3.7-7.3,8.2-7.3,12.4,0,24.8,0,37.2,0,2.9,0,5.7.2,8.5-.3,6.1-1,10.8-4.3,14.1-9.5,3.1-4.9,6.9-9.2,11.9-12.2,5.1-3,10.6-4.6,16.5-4.7,18.6-.1,37.3,0,55.9,0,.9,0,1.7,0,2.6.2,3.2.7,4.8,3.3,4.1,6.6-.6,2.8-2.3,4.2-5.3,4.3-2.7,0-5.4,0-8,0-5.3,0-10.5,0-15.8,0-7.8-.1-15.7,0-23.5,0-3.6,0-7.2,0-10.7.2-7.2.3-12.7,3.6-16.6,9.5-2.9,4.4-6.2,8.5-10.6,11.4-5.3,3.5-11.1,5.4-17.5,5.6-8,.2-16,0-22.5,0Z"/>
        <path class="cls-1" d="M155.3,73.9c-1.1.4-2.1.8-3.2,1.2-2.4,1-4.6,2.2-6.6,3.7-1.2.9-1.7.8-2.5-.4-1.4-2-2.9-3.9-4.3-5.9-4-5.7-9.4-8.9-16.4-9.4-3.5-.2-6.9-.1-10.4-.1-9.4,0-18.9,0-28.3,0-2.1,0-4.3.2-6.4-.2-3.9-.6-6.6-3.9-6.5-7.8,0-2.1,1.2-3.3,3.4-3.4,1.4,0,2.8,0,4.2,0,5.8,0,11.6,0,17.4,0,7.6-.1,15.2,0,22.8,0,4.3,0,8.6,0,12.7,1.3,7.3,2.1,12.9,6.7,17.2,12.8,2,2.9,3.9,5.9,6.8,8.2Z"/>
        <path class="cls-1" d="M51.8,83.1c0-8.8,0-17.5,0-26.3,0-.7,0-1.5,0-2.2.2-2.7,1.7-3.9,4.4-3.4,4.3.9,6.9,4.1,7,8.5,0,15.9,0,31.9,0,47.8,0,4.8-3.4,8.5-7.9,8.6-2.1,0-3.2-1-3.4-3,0-1.1,0-2.2,0-3.3,0-8.9,0-17.9,0-26.8Z"/>
      </g>
    </g>
  </g>
</svg>