<?xml version="1.0" encoding="UTF-8"?>
<svg xmlns="http://www.w3.org/2000/svg" version="1.1" viewBox="0 0 255.1 170.1">
  <defs>
    <style>
      .cls-1 {
        fill: #0046be;
      }
    </style>
  </defs>
  <!-- Generator: Adobe Illustrator 28.7.1, SVG Export Plug-In . SVG Version: 1.2.0 Build 142)  -->
  <g>
    <g id="Layer_1">
      <path class="cls-1" d="M8.2,145.5v-52.5s6.9-19.4,24-19.4v50.6h62.7v-25.5h-46s-1.6-24,17.6-24h52.9v47.7c0,5-1.5,9.8-4.3,13.9h0c-3.9,5.8-10.5,9.2-17.5,9.2H8.2Z"/>
      <path class="cls-1" d="M246.3,26.2s-.8,21.4-24,21.4h-62.7v25.5h46s1.6,24-17.6,24h-52.9v-47.7c0-5,1.5-9.8,4.3-13.9h0c3.9-5.8,10.5-9.2,17.5-9.2h89.3Z"/>
      <path class="cls-1" d="M136.3,145.5s.8-21.4,24-21.4h62.7v-25.5c0-23.7,24.5-24,24.5-24v47.7c0,5-1.5,9.8-4.3,13.9h0c-3.9,5.8-10.5,9.2-17.5,9.2h-89.3Z"/>
      <path class="cls-1" d="M9.1,50s-2.9-23.7,16.8-23.7h93.4s1.2,23.2-19.9,23.2-90.3.5-90.3.5Z"/>
    </g>
  </g>
</svg>