<svg width="25" height="15" viewBox="0 0 25 15" fill="none" xmlns="http://www.w3.org/2000/svg">
<path fill-rule="evenodd" clip-rule="evenodd" d="M17.1576 0.746697C17.5736 1.10991 17.6165 1.74163 17.2532 2.15767L6.77706 14.1577C6.58716 14.3752 6.3125 14.5 6.02374 14.5C5.73499 14.5 5.46033 14.3752 5.27043 14.1577L1.07995 9.35767C0.716735 8.94163 0.759563 8.30991 1.17561 7.9467C1.59165 7.58348 2.22337 7.62631 2.58658 8.04236L6.02374 11.9795L15.7466 0.842357C16.1098 0.426311 16.7415 0.383483 17.1576 0.746697Z" fill="#1D434C"/>
<path fill-rule="evenodd" clip-rule="evenodd" d="M23.8565 0.859284C24.2564 1.24018 24.2719 1.87315 23.891 2.27308L12.4621 14.2731C12.2601 14.4852 11.9753 14.598 11.6829 14.5819C11.3904 14.5658 11.1198 14.4222 10.9423 14.1892L10.3713 13.4392C10.0367 12.9998 10.1216 12.3724 10.561 12.0378C10.9385 11.7504 11.4548 11.7726 11.8049 12.0631L22.4427 0.893746C22.8236 0.493821 23.4566 0.478392 23.8565 0.859284Z" fill="#1D434C"/>
</svg>
