<svg width="35" height="29" viewBox="0 0 35 29" fill="none" xmlns="http://www.w3.org/2000/svg">
<path fill-rule="evenodd" clip-rule="evenodd" d="M14.2441 0.646485H20.7561C23.6659 0.64646 25.9706 0.64644 27.7744 0.888948C29.6307 1.13853 31.1332 1.66438 32.3181 2.84929C33.503 4.03419 34.0289 5.5367 34.2785 7.39303C34.4217 8.45841 34.4803 9.69856 34.5043 11.1349C34.5152 11.1996 34.5209 11.2662 34.5209 11.334C34.5209 11.3898 34.5171 11.4447 34.5096 11.4985C34.5209 12.3942 34.5209 13.3636 34.5209 14.4113V14.59C34.5209 17.4998 34.521 19.8045 34.2785 21.6083C34.0289 23.4646 33.503 24.9671 32.3181 26.152C31.1332 27.3369 29.6307 27.8628 27.7744 28.1124C25.9706 28.3549 23.6659 28.3548 20.7561 28.3548H14.2441C11.3343 28.3548 9.02955 28.3549 7.2258 28.1124C5.36946 27.8628 3.86696 27.3369 2.68205 26.152C1.49714 24.9671 0.97129 23.4646 0.721712 21.6083C0.479203 19.8045 0.479223 17.4998 0.479249 14.59V14.4113C0.479239 13.3635 0.479231 12.3942 0.490547 11.4985C0.483099 11.4447 0.479249 11.3898 0.479249 11.334C0.479249 11.2662 0.484935 11.1997 0.495856 11.1349C0.519848 9.69857 0.578475 8.45841 0.721712 7.39303C0.97129 5.5367 1.49714 4.03419 2.68205 2.84929C3.86696 1.66438 5.36946 1.13853 7.2258 0.888948C9.02955 0.64644 11.3343 0.64646 14.2441 0.646485ZM2.8574 12.5215C2.85439 13.1364 2.85425 13.7946 2.85425 14.5007C2.85425 17.5198 2.85677 19.6647 3.07553 21.2918C3.2897 22.8848 3.69135 23.8026 4.36143 24.4726C5.03151 25.1427 5.94928 25.5444 7.54226 25.7585C9.16939 25.9773 11.3143 25.9798 14.3334 25.9798H20.6667C23.6859 25.9798 25.8308 25.9773 27.4579 25.7585C29.0509 25.5444 29.9687 25.1427 30.6387 24.4726C31.3088 23.8026 31.7105 22.8848 31.9246 21.2918C32.1434 19.6647 32.1459 17.5198 32.1459 14.5007C32.1459 13.7946 32.1458 13.1364 32.1428 12.5215H2.8574ZM32.1046 10.1465H2.89553C2.9265 9.2175 2.9807 8.41485 3.07553 7.7095C3.2897 6.11652 3.69135 5.19875 4.36143 4.52866C5.03151 3.85858 5.94928 3.45694 7.54226 3.24277C9.16939 3.02401 11.3143 3.02149 14.3334 3.02149H20.6667C23.6859 3.02149 25.8308 3.02401 27.4579 3.24277C29.0509 3.45694 29.9687 3.85858 30.6387 4.52866C31.3088 5.19875 31.7105 6.11652 31.9246 7.7095C32.0195 8.41485 32.0737 9.2175 32.1046 10.1465ZM23.7626 14.8965H23.9043C24.5896 14.8964 25.2179 14.8963 25.729 14.965C26.2918 15.0407 26.8867 15.2188 27.376 15.708C27.8653 16.1973 28.0434 16.7922 28.119 17.3551C28.1877 17.8662 28.1877 18.4945 28.1876 19.1798V19.3215C28.1877 20.0068 28.1877 20.6351 28.119 21.1462C28.0434 21.7091 27.8653 22.304 27.376 22.7933C26.8867 23.2825 26.2918 23.4606 25.729 23.5363C25.2179 23.605 24.5896 23.6049 23.9043 23.6048H23.7626C23.0773 23.6049 22.449 23.605 21.9378 23.5363C21.375 23.4606 20.7801 23.2825 20.2908 22.7933C19.8015 22.304 19.6235 21.7091 19.5478 21.1462C19.4791 20.6351 19.4792 20.0068 19.4792 19.3215V19.1798C19.4792 18.4945 19.4791 17.8662 19.5478 17.3551C19.6235 16.7922 19.8015 16.1973 20.2908 15.708C20.7801 15.2188 21.375 15.0407 21.9378 14.965C22.449 14.8963 23.0773 14.8964 23.7626 14.8965ZM21.9741 17.3853L21.9702 17.3874L21.968 17.3913C21.9664 17.3944 21.9639 17.3996 21.9606 17.4076C21.9464 17.4421 21.9222 17.5187 21.9016 17.6715C21.8568 18.0052 21.8542 18.4707 21.8542 19.2507C21.8542 20.0306 21.8568 20.4961 21.9016 20.8298C21.9222 20.9827 21.9464 21.0592 21.9606 21.0937C21.9619 21.097 21.9631 21.0998 21.9642 21.1021C21.9658 21.1056 21.9671 21.1082 21.968 21.11L21.9702 21.1139L21.9741 21.116C21.9771 21.1176 21.9824 21.1202 21.9904 21.1235C22.0248 21.1377 22.1014 21.1619 22.2543 21.1824C22.5879 21.2273 23.0535 21.2298 23.8334 21.2298C24.6134 21.2298 25.0789 21.2273 25.4125 21.1824C25.5654 21.1619 25.642 21.1377 25.6765 21.1235C25.6845 21.1202 25.6897 21.1176 25.6928 21.116L25.6966 21.1139L25.6988 21.11C25.7004 21.1069 25.703 21.1017 25.7062 21.0937C25.7204 21.0592 25.7446 20.9827 25.7652 20.8298C25.8101 20.4961 25.8126 20.0306 25.8126 19.2507C25.8126 18.4707 25.8101 18.0052 25.7652 17.6715C25.7446 17.5187 25.7204 17.4421 25.7062 17.4076C25.7043 17.4029 25.7027 17.3992 25.7013 17.3963C25.7003 17.3942 25.6995 17.3926 25.6988 17.3913L25.6966 17.3874L25.6928 17.3853C25.6897 17.3837 25.6845 17.3811 25.6765 17.3778C25.642 17.3636 25.5654 17.3394 25.4125 17.3189C25.0789 17.274 24.6134 17.2715 23.8334 17.2715C23.0535 17.2715 22.5879 17.274 22.2543 17.3189C22.1014 17.3394 22.0248 17.3636 21.9904 17.3778C21.9824 17.3811 21.9771 17.3837 21.9741 17.3853ZM6.81258 16.8757C6.81258 16.2198 7.34424 15.6882 8.00008 15.6882H11.1667C11.8226 15.6882 12.3542 16.2198 12.3542 16.8757C12.3542 17.5315 11.8226 18.0632 11.1667 18.0632H8.00008C7.34424 18.0632 6.81258 17.5315 6.81258 16.8757ZM21.9702 21.1139C21.9696 21.1132 21.9698 21.1133 21.9702 21.1139C21.9708 21.1143 21.9709 21.1146 21.9702 21.1139ZM25.6966 21.1139C25.6963 21.1143 25.6966 21.114 25.6966 21.1139V21.1139ZM6.81258 21.6257C6.81258 20.9698 7.34424 20.4382 8.00008 20.4382H14.3334C14.9893 20.4382 15.5209 20.9698 15.5209 21.6257C15.5209 22.2815 14.9893 22.8132 14.3334 22.8132H8.00008C7.34424 22.8132 6.81258 22.2815 6.81258 21.6257Z" fill="#1D434C"/>
</svg>
