<svg width="34" height="33" viewBox="0 0 34 33" fill="none" xmlns="http://www.w3.org/2000/svg">
<g id="Component 2">
<path id="Vector" d="M23.9102 8.50977C25.0148 8.50977 25.9102 9.4052 25.9102 10.5098V11.5098H19.9102C17.1488 11.5098 14.9102 13.7484 14.9102 16.5098C14.9102 19.2712 17.1488 21.5098 19.9102 21.5098H25.9102V22.5098C25.9102 23.6144 25.0148 24.5098 23.9102 24.5098H9.91016C8.80559 24.5098 7.91016 23.6144 7.91016 22.5098V10.5098C7.91016 9.4052 8.80559 8.50977 9.91016 8.50977H23.9102ZM24.9102 13.5098C26.0148 13.5098 26.9102 14.4052 26.9102 15.5098V17.5098C26.9102 18.6144 26.0148 19.5098 24.9102 19.5098H19.9102C18.2533 19.5098 16.9102 18.1667 16.9102 16.5098C16.9102 14.8529 18.2533 13.5098 19.9102 13.5098H24.9102ZM19.9102 15.5098C19.3579 15.5098 18.9102 15.9575 18.9102 16.5098C18.9102 17.0621 19.3579 17.5098 19.9102 17.5098C20.4625 17.5098 20.9102 17.0621 20.9102 16.5098C20.9102 15.9575 20.4625 15.5098 19.9102 15.5098Z" fill="#14532d"/>
</g>
</svg>
