<svg width="34" height="33" viewBox="0 0 34 33" fill="none" xmlns="http://www.w3.org/2000/svg">
<g id="Component 2">
<path id="Vector" d="M17.8901 17.5098C20.0992 17.5098 21.8901 19.3007 21.8901 21.5098V23.0098C21.8901 23.8382 21.2185 24.5098 20.3901 24.5098H8.39014C7.56171 24.5098 6.89014 23.8382 6.89014 23.0098V21.5098C6.89014 19.3007 8.681 17.5098 10.8901 17.5098H17.8901ZM23.8901 17.51C25.547 17.51 26.8901 18.8532 26.8901 20.51V22.01C26.8901 22.8385 26.2185 23.51 25.3901 23.51H23.8901V21.5098C23.8901 19.8743 23.1049 18.4223 21.8909 17.51H23.8901ZM14.3901 7.50977C16.8754 7.50977 18.8901 9.52449 18.8901 12.0098C18.8901 14.4951 16.8754 16.5098 14.3901 16.5098C11.9048 16.5098 9.89014 14.4951 9.89014 12.0098C9.89014 9.52449 11.9048 7.50977 14.3901 7.50977ZM22.8901 10.5098C24.547 10.5098 25.8901 11.853 25.8901 13.5098C25.8901 15.1667 24.547 16.5098 22.8901 16.5098C21.2332 16.5098 19.8901 15.1667 19.8901 13.5098C19.8901 11.853 21.2332 10.5098 22.8901 10.5098Z" fill="#14532d"/>
</g>
</svg>
