<svg width="34" height="33" viewBox="0 0 34 33" fill="none" xmlns="http://www.w3.org/2000/svg">
<g id="Component 2">
<path id="Vector" fill-rule="evenodd" clip-rule="evenodd" d="M21.3 7.50977C21.8523 7.50977 22.3 7.95749 22.3 8.50977V9.50977H24.3C25.4046 9.50977 26.3 10.4052 26.3 11.5098V17.0376C25.2385 16.0875 23.8367 15.5098 22.3 15.5098C18.9863 15.5098 16.3 18.1961 16.3 21.5098C16.3 23.0465 16.8777 24.4483 17.8278 25.5098H10.3C9.19548 25.5098 8.30005 24.6144 8.30005 23.5098V11.5098C8.30005 10.4052 9.19548 9.50977 10.3 9.50977H12.3V8.50977C12.3 7.95749 12.7477 7.50977 13.3 7.50977C13.8523 7.50977 14.3 7.95749 14.3 8.50977V9.50977H20.3V8.50977C20.3 7.95749 20.7477 7.50977 21.3 7.50977ZM22.3 17.5098C24.5091 17.5098 26.3 19.3007 26.3 21.5098C26.3 23.7189 24.5091 25.5098 22.3 25.5098C20.0909 25.5098 18.3 23.7189 18.3 21.5098C18.3 19.3007 20.0909 17.5098 22.3 17.5098ZM22.3 19.0098C21.7872 19.0098 21.3645 19.3958 21.3067 19.8932L21.3 20.0098V21.5098C21.3 22.0226 21.686 22.4453 22.1834 22.5031L22.3 22.5098H23.3C23.8523 22.5098 24.3 22.0621 24.3 21.5098C24.3 20.997 23.914 20.5743 23.4166 20.5165L23.3 20.5098V20.0098C23.3 19.4575 22.8523 19.0098 22.3 19.0098ZM13.8 18.5098H13.3C12.7477 18.5098 12.3 18.9575 12.3 19.5098C12.3 20.0621 12.7477 20.5098 13.3 20.5098H13.8C14.3523 20.5098 14.8 20.0621 14.8 19.5098C14.8 18.9575 14.3523 18.5098 13.8 18.5098ZM16.3 14.5098H13.3C12.7477 14.5098 12.3 14.9575 12.3 15.5098C12.3 16.0226 12.686 16.4453 13.1834 16.5031L13.3 16.5098H16.3C16.8523 16.5098 17.3 16.0621 17.3 15.5098C17.3 14.997 16.914 14.5743 16.4166 14.5165L16.3 14.5098Z" fill="#14532d"/>
</g>
</svg>
