<svg width="36" height="32" viewBox="0 0 36 32" fill="none" xmlns="http://www.w3.org/2000/svg">
<path fill-rule="evenodd" clip-rule="evenodd" d="M15.2087 0.8125C19.1964 0.8125 22.826 2.34582 25.5387 4.85466C21.2554 9.03252 19.0831 13.8063 18.626 15.0701C18.5577 15.2784 18.3617 15.2971 18.2465 15.1014C16.6208 11.1862 12.4083 8.24335 8.36491 8.3509C8.18957 8.35716 8.11755 8.54413 8.24342 8.67858C11.3463 13.1178 9.63048 22.7467 18.1494 26.9871C18.4888 27.161 18.6542 27.009 18.6748 26.7714C19.8778 16.3783 27.4098 5.65697 35.6194 2.96865C35.6683 2.94989 35.8236 2.92863 35.9269 3.03681C36.0308 3.14562 36.0033 3.30008 35.9695 3.35823C33.898 6.7069 32.8603 12.8446 31.0368 18.2881C28.5739 25.6389 23.4014 31.1875 15.2087 31.1875C6.81065 31.1875 0 24.3864 0 16C0 7.61364 6.81065 0.8125 15.2087 0.8125Z" fill="white"/>
</svg>
