<svg width="27" height="29" viewBox="0 0 27 29" fill="none" xmlns="http://www.w3.org/2000/svg">
<path fill-rule="evenodd" clip-rule="evenodd" d="M8.33564 3.2474C7.85907 2.82378 7.14093 2.82378 6.66436 3.2474C5.48367 4.2969 3.73045 4.34251 2.5 3.38422V25.616C3.73045 24.6577 5.48367 24.7033 6.66436 25.7528C7.14093 26.1764 7.85907 26.1764 8.33564 25.7528C9.56997 24.6556 11.43 24.6556 12.6644 25.7528C13.1409 26.1764 13.8591 26.1764 14.3356 25.7528C15.57 24.6556 17.43 24.6556 18.6644 25.7528C19.1409 26.1764 19.8591 26.1764 20.3356 25.7528C21.5163 24.7033 23.2695 24.6577 24.5 25.616V3.38422C23.2695 4.34251 21.5163 4.2969 20.3356 3.2474C19.8591 2.82378 19.1409 2.82378 18.6644 3.2474C17.43 4.34458 15.57 4.34458 14.3356 3.2474C13.8591 2.82378 13.1409 2.82378 12.6644 3.2474C11.43 4.34458 9.56997 4.34458 8.33564 3.2474ZM5.33564 1.75258C6.56997 0.655391 8.43003 0.655391 9.66436 1.75258C10.1409 2.17619 10.8591 2.17619 11.3356 1.75258C12.57 0.655391 14.43 0.655391 15.6644 1.75258C16.1409 2.17619 16.8591 2.17619 17.3356 1.75258C18.57 0.655391 20.43 0.655391 21.6644 1.75258C22.1409 2.17619 22.8591 2.17619 23.3356 1.75258C24.5618 0.662697 26.5 1.5331 26.5 3.17359V25.8266C26.5 27.4671 24.5618 28.3375 23.3356 27.2476C22.8591 26.824 22.1409 26.824 21.6644 27.2476C20.43 28.3448 18.57 28.3448 17.3356 27.2476C16.8591 26.824 16.1409 26.824 15.6644 27.2476C14.43 28.3448 12.57 28.3448 11.3356 27.2476C10.8591 26.824 10.1409 26.824 9.66436 27.2476C8.43003 28.3448 6.56997 28.3448 5.33564 27.2476C4.85907 26.824 4.14093 26.824 3.66436 27.2476C2.43825 28.3375 0.5 27.4671 0.5 25.8266V3.17359C0.5 1.5331 2.43825 0.662697 3.66436 1.75258C4.14093 2.17619 4.85907 2.17619 5.33564 1.75258ZM6.5 9.83355C6.5 9.28127 6.94772 8.83355 7.5 8.83355H19.5C20.0523 8.83355 20.5 9.28127 20.5 9.83355C20.5 10.3858 20.0523 10.8336 19.5 10.8336H7.5C6.94772 10.8336 6.5 10.3858 6.5 9.83355ZM6.5 14.5002C6.5 13.9479 6.94772 13.5002 7.5 13.5002H19.5C20.0523 13.5002 20.5 13.9479 20.5 14.5002C20.5 15.0525 20.0523 15.5002 19.5 15.5002H7.5C6.94772 15.5002 6.5 15.0525 6.5 14.5002ZM6.5 19.1669C6.5 18.6146 6.94772 18.1669 7.5 18.1669H19.5C20.0523 18.1669 20.5 18.6146 20.5 19.1669C20.5 19.7192 20.0523 20.1669 19.5 20.1669H7.5C6.94772 20.1669 6.5 19.7192 6.5 19.1669Z" fill="#1D434C"/>
</svg>
