<svg width="31" height="33" viewBox="0 0 31 33" fill="none" xmlns="http://www.w3.org/2000/svg">
<path fill-rule="evenodd" clip-rule="evenodd" d="M8.14805 0.375061C8.22013 0.375092 8.29327 0.375124 8.36751 0.375124H22.6325C22.7067 0.375124 22.7798 0.375092 22.8519 0.375061C24.377 0.374393 25.4266 0.373933 26.3106 0.681519C27.9801 1.26241 29.2762 2.60589 29.8319 4.29838C30.126 5.19406 30.1256 6.25882 30.125 7.83982C30.125 7.91057 30.125 7.98236 30.125 8.05521V29.0614C30.125 31.2593 27.5345 32.5677 25.8284 31.0065C25.7092 30.8974 25.5408 30.8974 25.4216 31.0065L24.697 31.6696C23.3047 32.9436 21.1953 32.9436 19.803 31.6696C19.2705 31.1823 18.4794 31.1823 17.947 31.6696C16.5547 32.9436 14.4453 32.9436 13.053 31.6696C12.5205 31.1823 11.7294 31.1823 11.197 31.6696C9.80467 32.9436 7.69529 32.9436 6.30301 31.6696L5.57836 31.0065C5.45915 30.8974 5.29081 30.8974 5.17159 31.0065C3.46545 32.5677 0.874979 31.2593 0.874979 29.0614V8.05521C0.874979 7.98236 0.874953 7.91058 0.874927 7.83983C0.874355 6.25882 0.873969 5.19406 1.16805 4.29838C1.72374 2.60589 3.01991 1.26241 4.68935 0.681519C5.57333 0.373933 6.62293 0.374393 8.14805 0.375061ZM8.36751 2.62512C6.53588 2.62512 5.90498 2.64085 5.42877 2.80655C4.43971 3.1507 3.64866 3.95592 3.30577 5.00025C3.13915 5.50774 3.12498 6.17695 3.12498 8.05521V29.0614C3.12498 29.24 3.21486 29.3492 3.32763 29.4013C3.38638 29.4285 3.44383 29.4355 3.49171 29.4291C3.53392 29.4234 3.58854 29.4052 3.65265 29.3466C4.63167 28.4507 6.11829 28.4507 7.09731 29.3466L7.82195 30.0097C8.35443 30.4969 9.14553 30.4969 9.67801 30.0097C11.0703 28.7356 13.1797 28.7356 14.572 30.0097C15.1044 30.4969 15.8955 30.4969 16.428 30.0097C17.8203 28.7356 19.9297 28.7356 21.322 30.0097C21.8544 30.4969 22.6455 30.4969 23.178 30.0097L23.9027 29.3466C24.8817 28.4507 26.3683 28.4507 27.3473 29.3466C27.4114 29.4052 27.466 29.4234 27.5082 29.4291C27.5561 29.4355 27.6136 29.4285 27.6723 29.4013C27.7851 29.3492 27.875 29.24 27.875 29.0614V8.05521C27.875 6.17695 27.8608 5.50774 27.6942 5.00026C27.3513 3.95592 26.5603 3.1507 25.5712 2.80655C25.095 2.64085 24.4641 2.62512 22.6325 2.62512H8.36751ZM19.9992 9.66094C20.4627 10.0748 20.503 10.7859 20.0892 11.2494L14.732 17.2494C14.5186 17.4884 14.2133 17.6251 13.8928 17.6251C13.5724 17.6251 13.2671 17.4884 13.0537 17.2494L10.9108 14.8494C10.497 14.3859 10.5372 13.6748 11.0007 13.2609C11.4642 12.8471 12.1754 12.8874 12.5892 13.3509L13.8928 14.811L18.4108 9.75086C18.8246 9.28739 19.5358 9.24713 19.9992 9.66094ZM7.62498 21.7501C7.62498 21.1288 8.12866 20.6251 8.74998 20.6251H22.25C22.8713 20.6251 23.375 21.1288 23.375 21.7501C23.375 22.3714 22.8713 22.8751 22.25 22.8751H8.74998C8.12866 22.8751 7.62498 22.3714 7.62498 21.7501Z" fill="#1D434C"/>
</svg>
